<svg width="442" height="288" viewBox="0 0 442 288" fill="none" xmlns="http://www.w3.org/2000/svg">
<g filter="url(#filter0_d_3_56)">
<g clip-path="url(#clip0_3_56)">
<path d="M122.848 166C124.555 166 126.048 165.797 127.328 165.392C128.608 164.965 129.675 164.379 130.528 163.632C131.381 162.885 132.021 162 132.448 160.976C132.875 159.931 133.088 158.779 133.088 157.52C133.088 155.003 132.256 153.083 130.592 151.76C128.928 150.437 126.411 149.776 123.04 149.776H116.96V166H122.848ZM144.544 190H137.856C136.533 190 135.573 189.488 134.976 188.464L124.224 172.944C123.861 172.411 123.467 172.027 123.04 171.792C122.613 171.557 121.973 171.44 121.12 171.44H116.96V190H109.472V143.92H123.04C126.069 143.92 128.672 144.229 130.848 144.848C133.045 145.467 134.848 146.352 136.256 147.504C137.664 148.635 138.699 150 139.36 151.6C140.043 153.2 140.384 154.981 140.384 156.944C140.384 158.544 140.139 160.037 139.648 161.424C139.179 162.811 138.485 164.069 137.568 165.2C136.672 166.331 135.563 167.312 134.24 168.144C132.917 168.976 131.413 169.627 129.728 170.096C130.645 170.651 131.435 171.429 132.096 172.432L144.544 190ZM168.1 170C168.1 168.848 167.929 167.781 167.588 166.8C167.268 165.797 166.788 164.933 166.148 164.208C165.508 163.461 164.708 162.885 163.748 162.48C162.809 162.053 161.721 161.84 160.484 161.84C157.988 161.84 156.025 162.555 154.596 163.984C153.167 165.413 152.26 167.419 151.876 170H168.1ZM151.684 174.224C151.769 176.08 152.057 177.691 152.548 179.056C153.039 180.4 153.689 181.52 154.5 182.416C155.332 183.312 156.313 183.984 157.444 184.432C158.596 184.859 159.876 185.072 161.284 185.072C162.628 185.072 163.791 184.923 164.772 184.624C165.753 184.304 166.607 183.963 167.332 183.6C168.057 183.216 168.676 182.875 169.188 182.576C169.7 182.256 170.169 182.096 170.596 182.096C171.151 182.096 171.577 182.309 171.876 182.736L173.828 185.264C173.017 186.224 172.1 187.035 171.076 187.696C170.052 188.357 168.964 188.901 167.812 189.328C166.66 189.733 165.476 190.021 164.26 190.192C163.044 190.384 161.86 190.48 160.708 190.48C158.447 190.48 156.345 190.107 154.404 189.36C152.484 188.592 150.809 187.472 149.38 186C147.972 184.528 146.863 182.704 146.052 180.528C145.263 178.352 144.868 175.845 144.868 173.008C144.868 170.747 145.22 168.635 145.924 166.672C146.649 164.709 147.673 163.003 148.996 161.552C150.34 160.101 151.961 158.96 153.86 158.128C155.78 157.275 157.945 156.848 160.356 156.848C162.361 156.848 164.217 157.179 165.924 157.84C167.631 158.48 169.103 159.429 170.34 160.688C171.577 161.947 172.537 163.493 173.22 165.328C173.924 167.141 174.276 169.211 174.276 171.536C174.276 172.603 174.159 173.317 173.924 173.68C173.689 174.043 173.263 174.224 172.644 174.224H151.684ZM198.132 175.728C195.679 175.813 193.609 176.016 191.924 176.336C190.239 176.635 188.873 177.029 187.828 177.52C186.783 177.989 186.025 178.555 185.556 179.216C185.108 179.877 184.884 180.603 184.884 181.392C184.884 182.16 185.001 182.821 185.236 183.376C185.492 183.909 185.833 184.357 186.26 184.72C186.708 185.061 187.22 185.317 187.796 185.488C188.393 185.637 189.044 185.712 189.748 185.712C191.54 185.712 193.076 185.381 194.356 184.72C195.657 184.037 196.916 183.056 198.132 181.776V175.728ZM179.892 161.904C183.583 158.469 187.977 156.752 193.076 156.752C194.953 156.752 196.617 157.061 198.068 157.68C199.54 158.277 200.767 159.131 201.748 160.24C202.751 161.349 203.508 162.672 204.02 164.208C204.553 165.723 204.82 167.408 204.82 169.264V190H201.748C201.087 190 200.585 189.904 200.244 189.712C199.903 189.499 199.615 189.083 199.38 188.464L198.708 185.808C197.876 186.555 197.055 187.227 196.244 187.824C195.433 188.4 194.591 188.891 193.716 189.296C192.863 189.701 191.935 190 190.932 190.192C189.951 190.405 188.863 190.512 187.668 190.512C186.345 190.512 185.108 190.331 183.956 189.968C182.825 189.605 181.844 189.061 181.012 188.336C180.18 187.589 179.519 186.672 179.028 185.584C178.559 184.496 178.324 183.216 178.324 181.744C178.324 180.485 178.655 179.259 179.316 178.064C179.999 176.869 181.108 175.803 182.644 174.864C184.201 173.904 186.239 173.115 188.756 172.496C191.295 171.877 194.42 171.525 198.132 171.44V169.264C198.132 166.917 197.631 165.168 196.628 164.016C195.625 162.864 194.153 162.288 192.212 162.288C190.889 162.288 189.78 162.459 188.884 162.8C187.988 163.12 187.209 163.472 186.548 163.856C185.887 164.24 185.3 164.603 184.788 164.944C184.276 165.264 183.732 165.424 183.156 165.424C182.687 165.424 182.281 165.307 181.94 165.072C181.62 164.816 181.353 164.507 181.14 164.144L179.892 161.904ZM235.952 163.76C235.738 164.037 235.536 164.251 235.344 164.4C235.152 164.549 234.874 164.624 234.512 164.624C234.149 164.624 233.765 164.496 233.36 164.24C232.976 163.984 232.506 163.707 231.952 163.408C231.418 163.088 230.768 162.8 230 162.544C229.232 162.288 228.272 162.16 227.12 162.16C225.626 162.16 224.314 162.427 223.184 162.96C222.074 163.493 221.136 164.261 220.368 165.264C219.621 166.245 219.056 167.451 218.672 168.88C218.309 170.288 218.128 171.877 218.128 173.648C218.128 175.483 218.33 177.115 218.736 178.544C219.141 179.973 219.717 181.179 220.464 182.16C221.232 183.141 222.149 183.888 223.216 184.4C224.304 184.912 225.52 185.168 226.864 185.168C228.186 185.168 229.264 185.008 230.096 184.688C230.928 184.368 231.621 184.016 232.176 183.632C232.73 183.248 233.2 182.896 233.584 182.576C233.989 182.256 234.416 182.096 234.864 182.096C235.418 182.096 235.845 182.309 236.144 182.736L238.096 185.264C237.306 186.224 236.432 187.035 235.472 187.696C234.512 188.357 233.498 188.901 232.432 189.328C231.365 189.733 230.256 190.021 229.104 190.192C227.952 190.384 226.789 190.48 225.616 190.48C223.589 190.48 221.69 190.107 219.92 189.36C218.17 188.592 216.634 187.493 215.312 186.064C214.01 184.613 212.976 182.853 212.208 180.784C211.461 178.693 211.088 176.315 211.088 173.648C211.088 171.237 211.429 169.008 212.112 166.96C212.794 164.891 213.786 163.109 215.088 161.616C216.41 160.123 218.042 158.96 219.984 158.128C221.925 157.275 224.165 156.848 226.704 156.848C229.072 156.848 231.152 157.232 232.944 158C234.757 158.768 236.368 159.856 237.776 161.264L235.952 163.76ZM254.094 190.512C251.384 190.512 249.294 189.755 247.822 188.24C246.371 186.704 245.646 184.549 245.646 181.776V162.768H242.062C241.678 162.768 241.347 162.651 241.07 162.416C240.792 162.16 240.654 161.787 240.654 161.296V158.512L245.934 157.744L247.438 148.304C247.544 147.941 247.726 147.653 247.982 147.44C248.238 147.205 248.579 147.088 249.006 147.088H252.526V157.808H261.582V162.768H252.526V181.296C252.526 182.469 252.814 183.365 253.39 183.984C253.966 184.603 254.734 184.912 255.694 184.912C256.227 184.912 256.686 184.848 257.069 184.72C257.454 184.571 257.784 184.421 258.062 184.272C258.339 184.101 258.574 183.952 258.766 183.824C258.979 183.675 259.182 183.6 259.374 183.6C259.758 183.6 260.067 183.813 260.302 184.24L262.35 187.6C261.283 188.539 260.024 189.264 258.574 189.776C257.123 190.267 255.63 190.512 254.094 190.512Z" fill="#0D1657"/>
<path d="M50.034 198.024C49.254 197.256 48.624 196.41 48.144 195.486C47.664 194.55 47.424 193.476 47.424 192.264C47.424 191.256 47.592 190.374 47.928 189.618C48.264 188.85 48.738 188.208 49.35 187.692C49.95 187.176 50.676 186.786 51.528 186.522C52.38 186.258 53.322 186.126 54.354 186.126L66 186.126L66 189.654L54.354 189.654C53.046 189.654 52.032 189.954 51.312 190.554C50.58 191.154 50.214 192.072 50.214 193.308C50.214 194.208 50.43 195.054 50.862 195.846C51.282 196.626 51.858 197.352 52.59 198.024L66 198.024L66 201.534L39.432 201.534L39.432 198.024L50.034 198.024ZM66.288 175.912C66.288 177.388 65.874 178.528 65.046 179.332C64.218 180.124 63.036 180.52 61.5 180.52L50.556 180.52L50.556 182.644C50.556 182.848 50.496 183.022 50.376 183.166C50.244 183.298 50.052 183.364 49.8 183.364L48.378 183.364L47.964 180.394L42.51 179.602C42.306 179.554 42.15 179.464 42.042 179.332C41.922 179.188 41.862 179.008 41.862 178.792L41.862 177.01L48 177.01L48 171.826L50.556 171.826L50.556 177.01L61.266 177.01C61.986 177.01 62.526 176.836 62.886 176.488C63.234 176.128 63.408 175.672 63.408 175.12C63.408 174.796 63.366 174.52 63.282 174.292C63.198 174.052 63.108 173.848 63.012 173.68C62.904 173.512 62.808 173.368 62.724 173.248C62.64 173.128 62.598 173.02 62.598 172.924C62.598 172.804 62.628 172.714 62.688 172.654C62.736 172.582 62.82 172.51 62.94 172.438L64.632 171.394C65.16 171.97 65.568 172.654 65.856 173.446C66.144 174.238 66.288 175.06 66.288 175.912ZM66 168.593L47.712 168.593L47.712 166.487C47.712 165.995 47.946 165.689 48.414 165.569L50.16 165.317C49.356 164.645 48.702 163.901 48.198 163.085C47.682 162.257 47.424 161.291 47.424 160.187C47.424 158.975 47.76 157.991 48.432 157.235C49.092 156.479 49.992 155.927 51.132 155.579C50.484 155.315 49.926 154.973 49.458 154.553C48.99 154.133 48.606 153.665 48.306 153.149C48.006 152.633 47.784 152.087 47.64 151.511C47.496 150.923 47.424 150.329 47.424 149.729C47.424 148.757 47.58 147.893 47.892 147.137C48.192 146.369 48.636 145.721 49.224 145.193C49.812 144.665 50.538 144.263 51.402 143.987C52.266 143.711 53.25 143.573 54.354 143.573L66 143.573L66 147.101L54.354 147.101C52.986 147.101 51.954 147.401 51.258 148.001C50.562 148.589 50.214 149.453 50.214 150.593C50.214 151.097 50.304 151.577 50.484 152.033C50.652 152.489 50.91 152.891 51.258 153.239C51.606 153.575 52.038 153.845 52.554 154.049C53.07 154.241 53.67 154.337 54.354 154.337L66 154.337L66 157.865L54.354 157.865C52.938 157.865 51.894 158.147 51.222 158.711C50.55 159.275 50.214 160.103 50.214 161.195C50.214 161.951 50.412 162.653 50.808 163.301C51.204 163.949 51.744 164.543 52.428 165.083L66 165.083L66 168.593ZM39.432 135.25L66 135.25L66 138.778L39.432 138.778L39.432 135.25Z" fill="#84879F"/>
<path d="M181.76 222.25C182.156 221.83 182.57 221.446 183.002 221.098C183.434 220.75 183.89 220.456 184.37 220.216C184.862 219.964 185.384 219.772 185.936 219.64C186.5 219.496 187.1 219.424 187.736 219.424C188.744 219.424 189.626 219.592 190.382 219.928C191.15 220.264 191.792 220.738 192.308 221.35C192.824 221.95 193.214 222.676 193.478 223.528C193.742 224.38 193.874 225.322 193.874 226.354V238H190.346V226.354C190.346 225.046 190.046 224.032 189.446 223.312C188.846 222.58 187.928 222.214 186.692 222.214C185.792 222.214 184.946 222.43 184.154 222.862C183.374 223.282 182.648 223.858 181.976 224.59V238H178.466V219.712H180.572C181.064 219.712 181.37 219.946 181.49 220.414L181.76 222.25ZM206.405 219.424C207.749 219.424 208.961 219.646 210.041 220.09C211.133 220.522 212.057 221.152 212.813 221.98C213.581 222.796 214.169 223.786 214.577 224.95C214.985 226.102 215.189 227.398 215.189 228.838C215.189 230.278 214.985 231.58 214.577 232.744C214.169 233.908 213.581 234.898 212.813 235.714C212.057 236.53 211.133 237.16 210.041 237.604C208.961 238.036 207.749 238.252 206.405 238.252C205.049 238.252 203.825 238.036 202.733 237.604C201.653 237.16 200.729 236.53 199.961 235.714C199.193 234.898 198.599 233.908 198.179 232.744C197.771 231.58 197.567 230.278 197.567 228.838C197.567 227.398 197.771 226.102 198.179 224.95C198.599 223.786 199.193 222.796 199.961 221.98C200.729 221.152 201.653 220.522 202.733 220.09C203.825 219.646 205.049 219.424 206.405 219.424ZM206.405 235.516C208.133 235.516 209.423 234.934 210.275 233.77C211.127 232.606 211.553 230.968 211.553 228.856C211.553 226.744 211.127 225.106 210.275 223.942C209.423 222.766 208.133 222.178 206.405 222.178C204.653 222.178 203.345 222.766 202.481 223.942C201.629 225.106 201.203 226.744 201.203 228.856C201.203 230.968 201.629 232.606 202.481 233.77C203.345 234.934 204.653 235.516 206.405 235.516ZM230.897 224.14C230.321 223.384 229.697 222.856 229.025 222.556C228.365 222.256 227.621 222.106 226.793 222.106C225.185 222.106 223.937 222.688 223.049 223.852C222.173 225.004 221.735 226.69 221.735 228.91C221.735 230.074 221.831 231.07 222.023 231.898C222.227 232.714 222.515 233.386 222.887 233.914C223.271 234.43 223.739 234.814 224.291 235.066C224.843 235.306 225.467 235.426 226.163 235.426C227.183 235.426 228.065 235.198 228.809 234.742C229.553 234.286 230.249 233.644 230.897 232.816V224.14ZM234.425 211.432V238H232.301C231.809 238 231.503 237.766 231.383 237.298L231.077 235.192C230.297 236.116 229.409 236.86 228.413 237.424C227.429 237.976 226.289 238.252 224.993 238.252C223.949 238.252 223.001 238.048 222.149 237.64C221.309 237.232 220.589 236.638 219.989 235.858C219.389 235.066 218.927 234.088 218.603 232.924C218.279 231.76 218.117 230.422 218.117 228.91C218.117 227.554 218.297 226.294 218.657 225.13C219.017 223.966 219.539 222.958 220.223 222.106C220.907 221.254 221.735 220.588 222.707 220.108C223.679 219.616 224.777 219.37 226.001 219.37C227.105 219.37 228.041 219.55 228.809 219.91C229.589 220.27 230.285 220.78 230.897 221.44V211.432H234.425ZM251.435 226.822C251.435 226.126 251.333 225.484 251.129 224.896C250.937 224.308 250.649 223.798 250.265 223.366C249.881 222.934 249.413 222.598 248.861 222.358C248.309 222.118 247.673 221.998 246.953 221.998C245.477 221.998 244.313 222.424 243.461 223.276C242.621 224.128 242.087 225.31 241.859 226.822H251.435ZM254.333 235.39C253.901 235.894 253.403 236.332 252.839 236.704C252.275 237.064 251.675 237.358 251.039 237.586C250.403 237.814 249.743 237.982 249.059 238.09C248.387 238.198 247.721 238.252 247.061 238.252C245.801 238.252 244.631 238.042 243.551 237.622C242.483 237.19 241.553 236.566 240.761 235.75C239.981 234.922 239.369 233.902 238.925 232.69C238.493 231.466 238.277 230.062 238.277 228.478C238.277 227.206 238.475 226.024 238.871 224.932C239.267 223.828 239.831 222.868 240.563 222.052C241.307 221.236 242.213 220.594 243.281 220.126C244.349 219.658 245.549 219.424 246.881 219.424C247.997 219.424 249.023 219.61 249.959 219.982C250.907 220.342 251.723 220.87 252.407 221.566C253.091 222.262 253.625 223.12 254.009 224.14C254.405 225.16 254.603 226.324 254.603 227.632C254.603 228.172 254.543 228.538 254.423 228.73C254.303 228.91 254.081 229 253.757 229H241.769C241.805 230.092 241.961 231.046 242.237 231.862C242.513 232.666 242.891 233.338 243.371 233.878C243.863 234.418 244.445 234.82 245.117 235.084C245.789 235.348 246.539 235.48 247.367 235.48C248.147 235.48 248.819 235.39 249.383 235.21C249.959 235.03 250.451 234.838 250.859 234.634C251.279 234.418 251.627 234.22 251.903 234.04C252.191 233.86 252.443 233.77 252.659 233.77C252.947 233.77 253.169 233.878 253.325 234.094L254.333 235.39ZM257.8 235.894C257.8 235.57 257.86 235.264 257.98 234.976C258.1 234.688 258.262 234.436 258.466 234.22C258.682 234.004 258.934 233.836 259.222 233.716C259.51 233.584 259.822 233.518 260.158 233.518C260.482 233.518 260.788 233.584 261.076 233.716C261.364 233.836 261.616 234.004 261.832 234.22C262.048 234.436 262.216 234.688 262.336 234.976C262.468 235.264 262.534 235.57 262.534 235.894C262.534 236.23 262.468 236.542 262.336 236.83C262.216 237.118 262.048 237.37 261.832 237.586C261.616 237.802 261.364 237.97 261.076 238.09C260.788 238.21 260.482 238.27 260.158 238.27C259.822 238.27 259.51 238.21 259.222 238.09C258.934 237.97 258.682 237.802 258.466 237.586C258.262 237.37 258.1 237.118 257.98 236.83C257.86 236.542 257.8 236.23 257.8 235.894ZM270.556 219.712V239.152C270.556 239.908 270.454 240.61 270.25 241.258C270.058 241.918 269.746 242.488 269.314 242.968C268.894 243.46 268.342 243.844 267.658 244.12C266.986 244.396 266.17 244.534 265.21 244.534C264.814 244.534 264.454 244.504 264.13 244.444C263.794 244.384 263.458 244.3 263.122 244.192L263.266 242.284C263.314 242.056 263.422 241.93 263.59 241.906C263.746 241.882 264.052 241.87 264.508 241.87C265.432 241.87 266.086 241.66 266.47 241.24C266.854 240.82 267.046 240.124 267.046 239.152V219.712H270.556ZM271.222 214.06C271.222 214.384 271.156 214.696 271.024 214.996C270.892 215.284 270.712 215.542 270.484 215.77C270.256 215.986 269.992 216.16 269.692 216.292C269.404 216.412 269.092 216.472 268.756 216.472C268.432 216.472 268.126 216.412 267.838 216.292C267.55 216.16 267.292 215.986 267.064 215.77C266.848 215.542 266.674 215.284 266.542 214.996C266.422 214.696 266.362 214.384 266.362 214.06C266.362 213.724 266.422 213.412 266.542 213.124C266.674 212.824 266.848 212.566 267.064 212.35C267.292 212.122 267.55 211.948 267.838 211.828C268.126 211.696 268.432 211.63 268.756 211.63C269.092 211.63 269.404 211.696 269.692 211.828C269.992 211.948 270.256 212.122 270.484 212.35C270.712 212.566 270.892 212.824 271.024 213.124C271.156 213.412 271.222 213.724 271.222 214.06ZM286.42 222.862C286.324 223.018 286.222 223.132 286.114 223.204C286.006 223.264 285.868 223.294 285.7 223.294C285.508 223.294 285.292 223.228 285.052 223.096C284.824 222.964 284.542 222.82 284.206 222.664C283.882 222.508 283.498 222.364 283.054 222.232C282.61 222.1 282.082 222.034 281.47 222.034C280.966 222.034 280.504 222.1 280.084 222.232C279.676 222.352 279.328 222.526 279.04 222.754C278.752 222.97 278.53 223.234 278.374 223.546C278.218 223.846 278.14 224.17 278.14 224.518C278.14 224.974 278.272 225.352 278.536 225.652C278.812 225.952 279.166 226.21 279.598 226.426C280.042 226.642 280.54 226.84 281.092 227.02C281.656 227.188 282.226 227.368 282.802 227.56C283.39 227.752 283.96 227.974 284.512 228.226C285.076 228.466 285.574 228.772 286.006 229.144C286.45 229.504 286.804 229.942 287.068 230.458C287.344 230.974 287.482 231.604 287.482 232.348C287.482 233.2 287.326 233.992 287.014 234.724C286.714 235.444 286.264 236.068 285.664 236.596C285.076 237.124 284.344 237.538 283.468 237.838C282.592 238.138 281.59 238.288 280.462 238.288C279.202 238.288 278.038 238.078 276.97 237.658C275.902 237.238 275.008 236.704 274.288 236.056L275.116 234.706C275.212 234.538 275.332 234.412 275.476 234.328C275.62 234.232 275.812 234.184 276.052 234.184C276.28 234.184 276.514 234.268 276.754 234.436C276.994 234.604 277.282 234.79 277.618 234.994C277.954 235.186 278.362 235.366 278.842 235.534C279.322 235.69 279.922 235.768 280.642 235.768C281.242 235.768 281.764 235.696 282.208 235.552C282.652 235.396 283.018 235.192 283.306 234.94C283.606 234.676 283.828 234.376 283.972 234.04C284.116 233.704 284.188 233.35 284.188 232.978C284.188 232.498 284.05 232.102 283.774 231.79C283.51 231.466 283.156 231.19 282.712 230.962C282.28 230.734 281.782 230.536 281.218 230.368C280.654 230.2 280.078 230.02 279.49 229.828C278.902 229.636 278.326 229.414 277.762 229.162C277.198 228.91 276.694 228.592 276.25 228.208C275.818 227.824 275.464 227.356 275.188 226.804C274.924 226.252 274.792 225.58 274.792 224.788C274.792 224.08 274.936 223.402 275.224 222.754C275.524 222.106 275.95 221.536 276.502 221.044C277.066 220.552 277.756 220.162 278.572 219.874C279.4 219.574 280.342 219.424 281.398 219.424C282.61 219.424 283.702 219.616 284.674 220C285.658 220.384 286.498 220.912 287.194 221.584L286.42 222.862Z" fill="#0D1657"/>
<path d="M44.82 244.31C44.52 243.923 44.19 243.653 43.83 243.5C43.47 243.347 43.08 243.27 42.66 243.27C41.82 243.27 41.1633 243.58 40.69 244.2C40.2167 244.813 39.98 245.723 39.98 246.93C39.98 247.557 40.0333 248.093 40.14 248.54C40.2467 248.98 40.4 249.34 40.6 249.62C40.8 249.9 41.0433 250.103 41.33 250.23C41.6167 250.357 41.94 250.42 42.3 250.42C42.8467 250.42 43.3167 250.303 43.71 250.07C44.11 249.83 44.48 249.493 44.82 249.06V244.31ZM46.97 237.2V252H45.67C45.3833 252 45.2 251.863 45.12 251.59L44.93 250.48C44.5033 250.98 44.0167 251.383 43.47 251.69C42.93 251.997 42.3 252.15 41.58 252.15C41.0067 252.15 40.4867 252.037 40.02 251.81C39.5533 251.577 39.1533 251.24 38.82 250.8C38.4867 250.36 38.2267 249.817 38.04 249.17C37.86 248.517 37.77 247.77 37.77 246.93C37.77 246.17 37.87 245.467 38.07 244.82C38.2767 244.173 38.57 243.613 38.95 243.14C39.33 242.66 39.79 242.287 40.33 242.02C40.8767 241.747 41.4867 241.61 42.16 241.61C42.76 241.61 43.27 241.707 43.69 241.9C44.11 242.087 44.4867 242.35 44.82 242.69V237.2H46.97ZM55.0491 247.54C54.2824 247.567 53.6357 247.63 53.1091 247.73C52.5824 247.823 52.1557 247.947 51.8291 248.1C51.5024 248.247 51.2657 248.423 51.1191 248.63C50.9791 248.837 50.9091 249.063 50.9091 249.31C50.9091 249.55 50.9457 249.757 51.0191 249.93C51.0991 250.097 51.2057 250.237 51.3391 250.35C51.4791 250.457 51.6391 250.537 51.8191 250.59C52.0057 250.637 52.2091 250.66 52.4291 250.66C52.9891 250.66 53.4691 250.557 53.8691 250.35C54.2757 250.137 54.6691 249.83 55.0491 249.43V247.54ZM49.3491 243.22C50.5024 242.147 51.8757 241.61 53.4691 241.61C54.0557 241.61 54.5757 241.707 55.0291 241.9C55.4891 242.087 55.8724 242.353 56.1791 242.7C56.4924 243.047 56.7291 243.46 56.8891 243.94C57.0557 244.413 57.1391 244.94 57.1391 245.52V252H56.1791C55.9724 252 55.8157 251.97 55.7091 251.91C55.6024 251.843 55.5124 251.713 55.4391 251.52L55.2291 250.69C54.9691 250.923 54.7124 251.133 54.4591 251.32C54.2057 251.5 53.9424 251.653 53.6691 251.78C53.4024 251.907 53.1124 252 52.7991 252.06C52.4924 252.127 52.1524 252.16 51.7791 252.16C51.3657 252.16 50.9791 252.103 50.6191 251.99C50.2657 251.877 49.9591 251.707 49.6991 251.48C49.4391 251.247 49.2324 250.96 49.0791 250.62C48.9324 250.28 48.8591 249.88 48.8591 249.42C48.8591 249.027 48.9624 248.643 49.1691 248.27C49.3824 247.897 49.7291 247.563 50.2091 247.27C50.6957 246.97 51.3324 246.723 52.1191 246.53C52.9124 246.337 53.8891 246.227 55.0491 246.2V245.52C55.0491 244.787 54.8924 244.24 54.5791 243.88C54.2657 243.52 53.8057 243.34 53.1991 243.34C52.7857 243.34 52.4391 243.393 52.1591 243.5C51.8791 243.6 51.6357 243.71 51.4291 243.83C51.2224 243.95 51.0391 244.063 50.8791 244.17C50.7191 244.27 50.5491 244.32 50.3691 244.32C50.2224 244.32 50.0957 244.283 49.9891 244.21C49.8891 244.13 49.8057 244.033 49.7391 243.92L49.3491 243.22ZM62.7909 252.16C61.9443 252.16 61.2909 251.923 60.8309 251.45C60.3776 250.97 60.1509 250.297 60.1509 249.43V243.49H59.0309C58.9109 243.49 58.8076 243.453 58.7209 243.38C58.6343 243.3 58.5909 243.183 58.5909 243.03V242.16L60.2409 241.92L60.7109 238.97C60.7443 238.857 60.8009 238.767 60.8809 238.7C60.9609 238.627 61.0676 238.59 61.2009 238.59H62.3009V241.94H65.1309V243.49H62.3009V249.28C62.3009 249.647 62.3909 249.927 62.5709 250.12C62.7509 250.313 62.9909 250.41 63.2909 250.41C63.4576 250.41 63.6009 250.39 63.7209 250.35C63.8409 250.303 63.9443 250.257 64.0309 250.21C64.1176 250.157 64.1909 250.11 64.2509 250.07C64.3176 250.023 64.3809 250 64.4409 250C64.5609 250 64.6576 250.067 64.7309 250.2L65.3709 251.25C65.0376 251.543 64.6443 251.77 64.1909 251.93C63.7376 252.083 63.2709 252.16 62.7909 252.16ZM72.2756 247.54C71.509 247.567 70.8623 247.63 70.3356 247.73C69.809 247.823 69.3823 247.947 69.0556 248.1C68.729 248.247 68.4923 248.423 68.3456 248.63C68.2056 248.837 68.1356 249.063 68.1356 249.31C68.1356 249.55 68.1723 249.757 68.2456 249.93C68.3256 250.097 68.4323 250.237 68.5656 250.35C68.7056 250.457 68.8656 250.537 69.0456 250.59C69.2323 250.637 69.4356 250.66 69.6556 250.66C70.2156 250.66 70.6956 250.557 71.0956 250.35C71.5023 250.137 71.8956 249.83 72.2756 249.43V247.54ZM66.5756 243.22C67.729 242.147 69.1023 241.61 70.6956 241.61C71.2823 241.61 71.8023 241.707 72.2556 241.9C72.7156 242.087 73.099 242.353 73.4056 242.7C73.719 243.047 73.9556 243.46 74.1156 243.94C74.2823 244.413 74.3656 244.94 74.3656 245.52V252H73.4056C73.199 252 73.0423 251.97 72.9356 251.91C72.829 251.843 72.739 251.713 72.6656 251.52L72.4556 250.69C72.1956 250.923 71.939 251.133 71.6856 251.32C71.4323 251.5 71.169 251.653 70.8956 251.78C70.629 251.907 70.339 252 70.0256 252.06C69.719 252.127 69.379 252.16 69.0056 252.16C68.5923 252.16 68.2056 252.103 67.8456 251.99C67.4923 251.877 67.1856 251.707 66.9256 251.48C66.6656 251.247 66.459 250.96 66.3056 250.62C66.159 250.28 66.0856 249.88 66.0856 249.42C66.0856 249.027 66.189 248.643 66.3956 248.27C66.609 247.897 66.9556 247.563 67.4356 247.27C67.9223 246.97 68.559 246.723 69.3456 246.53C70.139 246.337 71.1156 246.227 72.2756 246.2V245.52C72.2756 244.787 72.119 244.24 71.8056 243.88C71.4923 243.52 71.0323 243.34 70.4256 243.34C70.0123 243.34 69.6656 243.393 69.3856 243.5C69.1056 243.6 68.8623 243.71 68.6556 243.83C68.449 243.95 68.2656 244.063 68.1056 244.17C67.9456 244.27 67.7756 244.32 67.5956 244.32C67.449 244.32 67.3223 244.283 67.2156 244.21C67.1156 244.13 67.0323 244.033 66.9656 243.92L66.5756 243.22ZM79.0342 249.44C79.3342 249.827 79.6609 250.1 80.0142 250.26C80.3742 250.413 80.7642 250.49 81.1842 250.49C82.0309 250.49 82.6909 250.183 83.1642 249.57C83.6376 248.957 83.8742 248.007 83.8742 246.72C83.8742 245.547 83.6676 244.69 83.2542 244.15C82.8476 243.61 82.2642 243.34 81.5042 243.34C80.9776 243.34 80.5176 243.46 80.1242 243.7C79.7376 243.933 79.3742 244.27 79.0342 244.71V249.44ZM79.0342 243.15C79.4542 242.69 79.9242 242.323 80.4442 242.05C80.9642 241.777 81.5576 241.64 82.2242 241.64C82.8176 241.64 83.3509 241.757 83.8242 241.99C84.3042 242.217 84.7109 242.547 85.0442 242.98C85.3776 243.413 85.6342 243.94 85.8142 244.56C85.9942 245.173 86.0842 245.867 86.0842 246.64C86.0842 247.467 85.9809 248.22 85.7742 248.9C85.5742 249.573 85.2842 250.153 84.9042 250.64C84.5242 251.12 84.0642 251.493 83.5242 251.76C82.9842 252.02 82.3809 252.15 81.7142 252.15C81.3876 252.15 81.0909 252.117 80.8242 252.05C80.5576 251.99 80.3109 251.9 80.0842 251.78C79.8576 251.66 79.6476 251.517 79.4542 251.35C79.2676 251.183 79.0876 250.993 78.9142 250.78L78.8242 251.57C78.7909 251.723 78.7309 251.833 78.6442 251.9C78.5576 251.967 78.4376 252 78.2842 252H76.8842V237.2H79.0342V243.15ZM93.6233 247.54C92.8566 247.567 92.2099 247.63 91.6833 247.73C91.1566 247.823 90.7299 247.947 90.4033 248.1C90.0766 248.247 89.8399 248.423 89.6933 248.63C89.5533 248.837 89.4833 249.063 89.4833 249.31C89.4833 249.55 89.5199 249.757 89.5933 249.93C89.6733 250.097 89.7799 250.237 89.9133 250.35C90.0533 250.457 90.2133 250.537 90.3933 250.59C90.5799 250.637 90.7833 250.66 91.0033 250.66C91.5633 250.66 92.0433 250.557 92.4433 250.35C92.8499 250.137 93.2433 249.83 93.6233 249.43V247.54ZM87.9233 243.22C89.0766 242.147 90.4499 241.61 92.0433 241.61C92.6299 241.61 93.1499 241.707 93.6033 241.9C94.0633 242.087 94.4466 242.353 94.7533 242.7C95.0666 243.047 95.3033 243.46 95.4633 243.94C95.6299 244.413 95.7133 244.94 95.7133 245.52V252H94.7533C94.5466 252 94.3899 251.97 94.2833 251.91C94.1766 251.843 94.0866 251.713 94.0133 251.52L93.8033 250.69C93.5433 250.923 93.2866 251.133 93.0333 251.32C92.7799 251.5 92.5166 251.653 92.2433 251.78C91.9766 251.907 91.6866 252 91.3733 252.06C91.0666 252.127 90.7266 252.16 90.3533 252.16C89.9399 252.16 89.5533 252.103 89.1933 251.99C88.8399 251.877 88.5333 251.707 88.2733 251.48C88.0133 251.247 87.8066 250.96 87.6533 250.62C87.5066 250.28 87.4333 249.88 87.4333 249.42C87.4333 249.027 87.5366 248.643 87.7433 248.27C87.9566 247.897 88.3033 247.563 88.7833 247.27C89.2699 246.97 89.9066 246.723 90.6933 246.53C91.4866 246.337 92.4633 246.227 93.6233 246.2V245.52C93.6233 244.787 93.4666 244.24 93.1533 243.88C92.8399 243.52 92.3799 243.34 91.7733 243.34C91.3599 243.34 91.0133 243.393 90.7333 243.5C90.4533 243.6 90.2099 243.71 90.0033 243.83C89.7966 243.95 89.6133 244.063 89.4533 244.17C89.2933 244.27 89.1233 244.32 88.9433 244.32C88.7966 244.32 88.6699 244.283 88.5633 244.21C88.4633 244.13 88.3799 244.033 88.3133 243.92L87.9233 243.22ZM104.322 243.65C104.269 243.743 104.209 243.81 104.142 243.85C104.075 243.89 103.992 243.91 103.892 243.91C103.779 243.91 103.655 243.877 103.522 243.81C103.389 243.737 103.232 243.657 103.052 243.57C102.872 243.483 102.659 243.407 102.412 243.34C102.172 243.267 101.889 243.23 101.562 243.23C101.295 243.23 101.052 243.263 100.832 243.33C100.619 243.39 100.435 243.48 100.282 243.6C100.135 243.713 100.022 243.85 99.9419 244.01C99.8619 244.163 99.8219 244.33 99.8219 244.51C99.8219 244.75 99.8952 244.95 100.042 245.11C100.189 245.27 100.382 245.41 100.622 245.53C100.862 245.643 101.135 245.747 101.442 245.84C101.749 245.933 102.062 246.033 102.382 246.14C102.702 246.247 103.015 246.37 103.322 246.51C103.629 246.65 103.902 246.823 104.142 247.03C104.382 247.23 104.575 247.477 104.722 247.77C104.869 248.057 104.942 248.407 104.942 248.82C104.942 249.3 104.855 249.743 104.682 250.15C104.509 250.557 104.255 250.91 103.922 251.21C103.589 251.51 103.172 251.743 102.672 251.91C102.179 252.077 101.612 252.16 100.972 252.16C100.619 252.16 100.275 252.127 99.9419 252.06C99.6152 252 99.3019 251.917 99.0019 251.81C98.7085 251.697 98.4319 251.563 98.1719 251.41C97.9185 251.257 97.6919 251.09 97.4919 250.91L97.9919 250.09C98.0519 249.99 98.1252 249.913 98.2119 249.86C98.3052 249.8 98.4185 249.77 98.5519 249.77C98.6919 249.77 98.8285 249.817 98.9619 249.91C99.1019 249.997 99.2619 250.093 99.4419 250.2C99.6285 250.307 99.8519 250.407 100.112 250.5C100.372 250.587 100.695 250.63 101.082 250.63C101.402 250.63 101.679 250.593 101.912 250.52C102.145 250.44 102.339 250.333 102.492 250.2C102.645 250.067 102.759 249.917 102.832 249.75C102.905 249.577 102.942 249.393 102.942 249.2C102.942 248.94 102.869 248.727 102.722 248.56C102.575 248.393 102.379 248.25 102.132 248.13C101.892 248.01 101.615 247.903 101.302 247.81C100.995 247.717 100.682 247.617 100.362 247.51C100.042 247.403 99.7252 247.28 99.4119 247.14C99.1052 247 98.8285 246.823 98.5819 246.61C98.3419 246.39 98.1485 246.127 98.0019 245.82C97.8552 245.507 97.7819 245.127 97.7819 244.68C97.7819 244.273 97.8619 243.887 98.0219 243.52C98.1885 243.153 98.4285 242.83 98.7419 242.55C99.0619 242.27 99.4519 242.05 99.9119 241.89C100.379 241.723 100.915 241.64 101.522 241.64C102.209 241.64 102.832 241.75 103.392 241.97C103.952 242.19 104.422 242.49 104.802 242.87L104.322 243.65ZM113.652 245.75C113.652 245.39 113.599 245.057 113.492 244.75C113.392 244.437 113.242 244.167 113.042 243.94C112.842 243.707 112.592 243.527 112.292 243.4C111.999 243.267 111.659 243.2 111.272 243.2C110.492 243.2 109.879 243.423 109.432 243.87C108.986 244.317 108.702 244.943 108.582 245.75H113.652ZM108.522 247.07C108.549 247.65 108.639 248.153 108.792 248.58C108.946 249 109.149 249.35 109.402 249.63C109.662 249.91 109.969 250.12 110.322 250.26C110.682 250.393 111.082 250.46 111.522 250.46C111.942 250.46 112.306 250.413 112.612 250.32C112.919 250.22 113.186 250.113 113.412 250C113.639 249.88 113.832 249.773 113.992 249.68C114.152 249.58 114.299 249.53 114.432 249.53C114.606 249.53 114.739 249.597 114.832 249.73L115.442 250.52C115.189 250.82 114.902 251.073 114.582 251.28C114.262 251.487 113.922 251.657 113.562 251.79C113.202 251.917 112.832 252.007 112.452 252.06C112.072 252.12 111.702 252.15 111.342 252.15C110.636 252.15 109.979 252.033 109.372 251.8C108.772 251.56 108.249 251.21 107.802 250.75C107.362 250.29 107.016 249.72 106.762 249.04C106.516 248.36 106.392 247.577 106.392 246.69C106.392 245.983 106.502 245.323 106.722 244.71C106.949 244.097 107.269 243.563 107.682 243.11C108.102 242.657 108.609 242.3 109.202 242.04C109.802 241.773 110.479 241.64 111.232 241.64C111.859 241.64 112.439 241.743 112.972 241.95C113.506 242.15 113.966 242.447 114.352 242.84C114.739 243.233 115.039 243.717 115.252 244.29C115.472 244.857 115.582 245.503 115.582 246.23C115.582 246.563 115.546 246.787 115.472 246.9C115.399 247.013 115.266 247.07 115.072 247.07H108.522Z" fill="#0D1657"/>
<path d="M60.73 96.916C60.73 98.0453 60.59 99.0627 60.31 99.968C60.0393 100.864 59.6287 101.629 59.078 102.264C58.5367 102.889 57.86 103.375 57.048 103.72C56.2453 104.056 55.312 104.224 54.248 104.224C53.7627 104.224 53.282 104.191 52.806 104.126C52.33 104.07 51.8353 103.977 51.322 103.846L51.49 101.886C51.518 101.699 51.588 101.55 51.7 101.438C51.8213 101.326 51.994 101.27 52.218 101.27C52.386 101.27 52.6007 101.307 52.862 101.382C53.1327 101.447 53.4827 101.48 53.912 101.48C54.4813 101.48 54.9853 101.396 55.424 101.228C55.872 101.06 56.2453 100.799 56.544 100.444C56.852 100.08 57.0807 99.618 57.23 99.058C57.3887 98.4887 57.468 97.8027 57.468 97V83.84H60.73V96.916ZM71.8663 97.756C70.793 97.7933 69.8877 97.882 69.1503 98.022C68.413 98.1527 67.8157 98.3253 67.3583 98.54C66.901 98.7453 66.5697 98.9927 66.3643 99.282C66.1683 99.5713 66.0703 99.8887 66.0703 100.234C66.0703 100.57 66.1217 100.859 66.2243 101.102C66.3363 101.335 66.4857 101.531 66.6723 101.69C66.8683 101.839 67.0923 101.951 67.3443 102.026C67.6057 102.091 67.8903 102.124 68.1983 102.124C68.9823 102.124 69.6543 101.979 70.2143 101.69C70.7837 101.391 71.3343 100.962 71.8663 100.402V97.756ZM63.8863 91.708C65.501 90.2053 67.4237 89.454 69.6543 89.454C70.4757 89.454 71.2037 89.5893 71.8383 89.86C72.4823 90.1213 73.019 90.4947 73.4483 90.98C73.887 91.4653 74.2183 92.044 74.4423 92.716C74.6757 93.3787 74.7923 94.116 74.7923 94.928V104H73.4483C73.159 104 72.9397 103.958 72.7903 103.874C72.641 103.781 72.515 103.599 72.4123 103.328L72.1183 102.166C71.7543 102.493 71.395 102.787 71.0403 103.048C70.6857 103.3 70.317 103.515 69.9343 103.692C69.561 103.869 69.155 104 68.7163 104.084C68.287 104.177 67.811 104.224 67.2883 104.224C66.7097 104.224 66.1683 104.145 65.6643 103.986C65.1697 103.827 64.7403 103.589 64.3763 103.272C64.0123 102.945 63.723 102.544 63.5083 102.068C63.303 101.592 63.2003 101.032 63.2003 100.388C63.2003 99.8373 63.345 99.3007 63.6343 98.778C63.933 98.2553 64.4183 97.7887 65.0903 97.378C65.7717 96.958 66.663 96.6127 67.7643 96.342C68.875 96.0713 70.2423 95.9173 71.8663 95.88V94.928C71.8663 93.9013 71.647 93.136 71.2083 92.632C70.7697 92.128 70.1257 91.876 69.2763 91.876C68.6977 91.876 68.2123 91.9507 67.8203 92.1C67.4283 92.24 67.0877 92.394 66.7983 92.562C66.509 92.73 66.2523 92.8887 66.0283 93.038C65.8043 93.178 65.5663 93.248 65.3143 93.248C65.109 93.248 64.9317 93.1967 64.7823 93.094C64.6423 92.982 64.5257 92.8467 64.4323 92.688L63.8863 91.708ZM90.5623 89.72L84.8223 104H82.1063L76.3663 89.72H78.8443C79.0776 89.72 79.2689 89.7807 79.4183 89.902C79.5769 90.014 79.6796 90.1493 79.7263 90.308L82.8903 98.624C83.0209 99.016 83.1376 99.4033 83.2403 99.786C83.3429 100.169 83.4316 100.556 83.5063 100.948C83.5809 100.556 83.6696 100.173 83.7723 99.8C83.8843 99.4173 84.0056 99.0253 84.1363 98.624L87.3563 90.308C87.4123 90.14 87.5149 90 87.6643 89.888C87.8136 89.776 87.9956 89.72 88.2103 89.72H90.5623ZM99.921 97.756C98.8477 97.7933 97.9424 97.882 97.205 98.022C96.4677 98.1527 95.8704 98.3253 95.413 98.54C94.9557 98.7453 94.6244 98.9927 94.419 99.282C94.223 99.5713 94.125 99.8887 94.125 100.234C94.125 100.57 94.1764 100.859 94.279 101.102C94.391 101.335 94.5404 101.531 94.727 101.69C94.923 101.839 95.147 101.951 95.399 102.026C95.6604 102.091 95.945 102.124 96.253 102.124C97.037 102.124 97.709 101.979 98.269 101.69C98.8384 101.391 99.389 100.962 99.921 100.402V97.756ZM91.941 91.708C93.5557 90.2053 95.4784 89.454 97.709 89.454C98.5304 89.454 99.2584 89.5893 99.893 89.86C100.537 90.1213 101.074 90.4947 101.503 90.98C101.942 91.4653 102.273 92.044 102.497 92.716C102.73 93.3787 102.847 94.116 102.847 94.928V104H101.503C101.214 104 100.994 103.958 100.845 103.874C100.696 103.781 100.57 103.599 100.467 103.328L100.173 102.166C99.809 102.493 99.4497 102.787 99.095 103.048C98.7404 103.3 98.3717 103.515 97.989 103.692C97.6157 103.869 97.2097 104 96.771 104.084C96.3417 104.177 95.8657 104.224 95.343 104.224C94.7644 104.224 94.223 104.145 93.719 103.986C93.2244 103.827 92.795 103.589 92.431 103.272C92.067 102.945 91.7777 102.544 91.563 102.068C91.3577 101.592 91.255 101.032 91.255 100.388C91.255 99.8373 91.3997 99.3007 91.689 98.778C91.9877 98.2553 92.473 97.7887 93.145 97.378C93.8264 96.958 94.7177 96.6127 95.819 96.342C96.9297 96.0713 98.297 95.9173 99.921 95.88V94.928C99.921 93.9013 99.7017 93.136 99.263 92.632C98.8244 92.128 98.1804 91.876 97.331 91.876C96.7524 91.876 96.267 91.9507 95.875 92.1C95.483 92.24 95.1424 92.394 94.853 92.562C94.5637 92.73 94.307 92.8887 94.083 93.038C93.859 93.178 93.621 93.248 93.369 93.248C93.1637 93.248 92.9864 93.1967 92.837 93.094C92.697 92.982 92.5804 92.8467 92.487 92.688L91.941 91.708ZM117.229 87.284C117.126 87.452 117.019 87.578 116.907 87.662C116.795 87.7367 116.655 87.774 116.487 87.774C116.31 87.774 116.109 87.6993 115.885 87.55C115.67 87.4007 115.4 87.2373 115.073 87.06C114.756 86.8733 114.378 86.7053 113.939 86.556C113.5 86.3973 112.978 86.318 112.371 86.318C111.811 86.318 111.316 86.388 110.887 86.528C110.467 86.668 110.112 86.864 109.823 87.116C109.534 87.368 109.314 87.6667 109.165 88.012C109.025 88.348 108.955 88.7167 108.955 89.118C108.955 89.6313 109.09 90.0607 109.361 90.406C109.632 90.742 109.986 91.0313 110.425 91.274C110.873 91.5167 111.382 91.7313 111.951 91.918C112.52 92.0953 113.099 92.2867 113.687 92.492C114.284 92.6973 114.868 92.9307 115.437 93.192C116.006 93.4533 116.51 93.7847 116.949 94.186C117.397 94.5873 117.756 95.0773 118.027 95.656C118.298 96.2347 118.433 96.9393 118.433 97.77C118.433 98.666 118.279 99.506 117.971 100.29C117.663 101.074 117.215 101.76 116.627 102.348C116.048 102.927 115.33 103.384 114.471 103.72C113.622 104.056 112.651 104.224 111.559 104.224C110.915 104.224 110.285 104.159 109.669 104.028C109.062 103.907 108.479 103.734 107.919 103.51C107.368 103.277 106.85 102.997 106.365 102.67C105.88 102.343 105.446 101.979 105.063 101.578L106.015 100.01C106.099 99.8793 106.206 99.7767 106.337 99.702C106.468 99.6273 106.612 99.59 106.771 99.59C106.986 99.59 107.224 99.6927 107.485 99.898C107.746 100.094 108.059 100.313 108.423 100.556C108.796 100.789 109.244 101.009 109.767 101.214C110.29 101.41 110.915 101.508 111.643 101.508C112.828 101.508 113.743 101.219 114.387 100.64C115.04 100.061 115.367 99.2633 115.367 98.246C115.367 97.6767 115.232 97.2147 114.961 96.86C114.69 96.496 114.331 96.1927 113.883 95.95C113.444 95.7073 112.94 95.502 112.371 95.334C111.802 95.166 111.223 94.9887 110.635 94.802C110.047 94.606 109.468 94.382 108.899 94.13C108.33 93.8687 107.821 93.5327 107.373 93.122C106.934 92.702 106.58 92.1887 106.309 91.582C106.038 90.966 105.903 90.2007 105.903 89.286C105.903 88.558 106.043 87.8533 106.323 87.172C106.612 86.4907 107.028 85.8887 107.569 85.366C108.12 84.834 108.796 84.4093 109.599 84.092C110.402 83.7747 111.316 83.616 112.343 83.616C113.5 83.616 114.56 83.798 115.521 84.162C116.492 84.526 117.327 85.044 118.027 85.716L117.229 87.284ZM131.451 92.52C131.358 92.6413 131.269 92.7347 131.185 92.8C131.101 92.8653 130.98 92.898 130.821 92.898C130.663 92.898 130.495 92.842 130.317 92.73C130.149 92.618 129.944 92.4967 129.701 92.366C129.468 92.226 129.183 92.1 128.847 91.988C128.511 91.876 128.091 91.82 127.587 91.82C126.934 91.82 126.36 91.9367 125.865 92.17C125.38 92.4033 124.969 92.7393 124.633 93.178C124.307 93.6073 124.059 94.1347 123.891 94.76C123.733 95.376 123.653 96.0713 123.653 96.846C123.653 97.6487 123.742 98.3627 123.919 98.988C124.097 99.6133 124.349 100.141 124.675 100.57C125.011 100.999 125.413 101.326 125.879 101.55C126.355 101.774 126.887 101.886 127.475 101.886C128.054 101.886 128.525 101.816 128.889 101.676C129.253 101.536 129.557 101.382 129.799 101.214C130.042 101.046 130.247 100.892 130.415 100.752C130.593 100.612 130.779 100.542 130.975 100.542C131.218 100.542 131.405 100.635 131.535 100.822L132.389 101.928C132.044 102.348 131.661 102.703 131.241 102.992C130.821 103.281 130.378 103.519 129.911 103.706C129.445 103.883 128.959 104.009 128.455 104.084C127.951 104.168 127.443 104.21 126.929 104.21C126.043 104.21 125.212 104.047 124.437 103.72C123.672 103.384 123 102.903 122.421 102.278C121.852 101.643 121.399 100.873 121.063 99.968C120.737 99.0533 120.573 98.0127 120.573 96.846C120.573 95.7913 120.723 94.816 121.021 93.92C121.32 93.0147 121.754 92.2353 122.323 91.582C122.902 90.9287 123.616 90.42 124.465 90.056C125.315 89.6827 126.295 89.496 127.405 89.496C128.441 89.496 129.351 89.664 130.135 90C130.929 90.336 131.633 90.812 132.249 91.428L131.451 92.52ZM137.653 92.366C138.101 91.4607 138.642 90.7513 139.277 90.238C139.911 89.7153 140.672 89.454 141.559 89.454C141.867 89.454 142.156 89.4913 142.427 89.566C142.697 89.6313 142.94 89.734 143.155 89.874L142.945 92.142C142.907 92.3007 142.847 92.4127 142.763 92.478C142.688 92.534 142.585 92.562 142.455 92.562C142.315 92.562 142.114 92.5387 141.853 92.492C141.591 92.436 141.316 92.408 141.027 92.408C140.607 92.408 140.233 92.4687 139.907 92.59C139.589 92.7113 139.3 92.8887 139.039 93.122C138.787 93.3553 138.563 93.64 138.367 93.976C138.171 94.312 137.989 94.6947 137.821 95.124V104H134.811V89.72H136.561C136.878 89.72 137.097 89.7807 137.219 89.902C137.34 90.014 137.424 90.2147 137.471 90.504L137.653 92.366ZM148.283 89.72V104H145.273V89.72H148.283ZM148.787 85.408C148.787 85.6787 148.731 85.9353 148.619 86.178C148.516 86.4207 148.371 86.6353 148.185 86.822C147.998 86.9993 147.779 87.144 147.527 87.256C147.284 87.3587 147.023 87.41 146.743 87.41C146.472 87.41 146.215 87.3587 145.973 87.256C145.739 87.144 145.534 86.9993 145.357 86.822C145.179 86.6353 145.035 86.4207 144.923 86.178C144.82 85.9353 144.769 85.6787 144.769 85.408C144.769 85.128 144.82 84.8667 144.923 84.624C145.035 84.3813 145.179 84.1713 145.357 83.994C145.534 83.8073 145.739 83.6627 145.973 83.56C146.215 83.448 146.472 83.392 146.743 83.392C147.023 83.392 147.284 83.448 147.527 83.56C147.779 83.6627 147.998 83.8073 148.185 83.994C148.371 84.1713 148.516 84.3813 148.619 84.624C148.731 84.8667 148.787 85.128 148.787 85.408ZM155.074 100.416C155.494 100.957 155.952 101.34 156.446 101.564C156.95 101.779 157.506 101.886 158.112 101.886C159.288 101.886 160.203 101.457 160.856 100.598C161.519 99.7393 161.85 98.4607 161.85 96.762C161.85 95.8847 161.776 95.138 161.626 94.522C161.477 93.8967 161.262 93.388 160.982 92.996C160.702 92.604 160.362 92.3193 159.96 92.142C159.559 91.9647 159.106 91.876 158.602 91.876C157.837 91.876 157.174 92.044 156.614 92.38C156.064 92.7067 155.55 93.178 155.074 93.794V100.416ZM154.92 91.792C155.518 91.092 156.194 90.5273 156.95 90.098C157.716 89.6687 158.602 89.454 159.61 89.454C160.413 89.454 161.141 89.6173 161.794 89.944C162.448 90.2613 163.008 90.728 163.474 91.344C163.941 91.96 164.3 92.7253 164.552 93.64C164.814 94.5453 164.944 95.586 164.944 96.762C164.944 97.8167 164.8 98.8013 164.51 99.716C164.23 100.621 163.824 101.41 163.292 102.082C162.76 102.745 162.116 103.267 161.36 103.65C160.604 104.023 159.75 104.21 158.798 104.21C157.958 104.21 157.244 104.075 156.656 103.804C156.078 103.533 155.55 103.16 155.074 102.684V108.746H152.064V89.72H153.884C154.295 89.72 154.556 89.9113 154.668 90.294L154.92 91.792ZM172.256 104.224C171.07 104.224 170.156 103.893 169.512 103.23C168.877 102.558 168.56 101.615 168.56 100.402V92.086H166.992C166.824 92.086 166.679 92.0347 166.558 91.932C166.436 91.82 166.376 91.6567 166.376 91.442V90.224L168.686 89.888L169.344 85.758C169.39 85.5993 169.47 85.4733 169.582 85.38C169.694 85.2773 169.843 85.226 170.03 85.226H171.57V89.916H175.532V92.086H171.57V100.192C171.57 100.705 171.696 101.097 171.948 101.368C172.2 101.639 172.536 101.774 172.956 101.774C173.189 101.774 173.39 101.746 173.558 101.69C173.726 101.625 173.87 101.559 173.992 101.494C174.113 101.419 174.216 101.354 174.3 101.298C174.393 101.233 174.482 101.2 174.566 101.2C174.734 101.2 174.869 101.293 174.972 101.48L175.868 102.95C175.401 103.361 174.85 103.678 174.216 103.902C173.581 104.117 172.928 104.224 172.256 104.224Z" fill="#0D1657"/>
<path d="M224.394 113.506C224.571 113.506 224.725 113.576 224.856 113.716L226.158 115.13C225.337 116.119 224.329 116.885 223.134 117.426C221.939 117.958 220.511 118.224 218.85 118.224C217.375 118.224 216.041 117.972 214.846 117.468C213.661 116.955 212.648 116.245 211.808 115.34C210.968 114.425 210.319 113.338 209.862 112.078C209.414 110.818 209.19 109.432 209.19 107.92C209.19 106.408 209.428 105.022 209.904 103.762C210.389 102.493 211.066 101.405 211.934 100.5C212.811 99.5853 213.857 98.876 215.07 98.372C216.293 97.868 217.637 97.616 219.102 97.616C220.558 97.616 221.841 97.854 222.952 98.33C224.072 98.7967 225.043 99.422 225.864 100.206L224.786 101.732C224.711 101.835 224.623 101.923 224.52 101.998C224.417 102.073 224.277 102.11 224.1 102.11C223.913 102.11 223.699 102.026 223.456 101.858C223.223 101.681 222.919 101.489 222.546 101.284C222.182 101.069 221.72 100.878 221.16 100.71C220.609 100.533 219.919 100.444 219.088 100.444C218.127 100.444 217.245 100.612 216.442 100.948C215.639 101.284 214.949 101.774 214.37 102.418C213.791 103.062 213.339 103.846 213.012 104.77C212.695 105.694 212.536 106.744 212.536 107.92C212.536 109.105 212.704 110.165 213.04 111.098C213.376 112.022 213.838 112.806 214.426 113.45C215.014 114.085 215.705 114.57 216.498 114.906C217.291 115.242 218.145 115.41 219.06 115.41C219.62 115.41 220.119 115.382 220.558 115.326C221.006 115.261 221.417 115.163 221.79 115.032C222.163 114.892 222.513 114.719 222.84 114.514C223.176 114.309 223.507 114.057 223.834 113.758C224.021 113.59 224.207 113.506 224.394 113.506ZM239.53 101.284C239.427 101.452 239.32 101.578 239.208 101.662C239.096 101.737 238.956 101.774 238.788 101.774C238.61 101.774 238.41 101.699 238.186 101.55C237.971 101.401 237.7 101.237 237.374 101.06C237.056 100.873 236.678 100.705 236.24 100.556C235.801 100.397 235.278 100.318 234.672 100.318C234.112 100.318 233.617 100.388 233.188 100.528C232.768 100.668 232.413 100.864 232.124 101.116C231.834 101.368 231.615 101.667 231.466 102.012C231.326 102.348 231.256 102.717 231.256 103.118C231.256 103.631 231.391 104.061 231.662 104.406C231.932 104.742 232.287 105.031 232.726 105.274C233.174 105.517 233.682 105.731 234.252 105.918C234.821 106.095 235.4 106.287 235.988 106.492C236.585 106.697 237.168 106.931 237.738 107.192C238.307 107.453 238.811 107.785 239.25 108.186C239.698 108.587 240.057 109.077 240.328 109.656C240.598 110.235 240.734 110.939 240.734 111.77C240.734 112.666 240.58 113.506 240.272 114.29C239.964 115.074 239.516 115.76 238.928 116.348C238.349 116.927 237.63 117.384 236.772 117.72C235.922 118.056 234.952 118.224 233.86 118.224C233.216 118.224 232.586 118.159 231.97 118.028C231.363 117.907 230.78 117.734 230.22 117.51C229.669 117.277 229.151 116.997 228.666 116.67C228.18 116.343 227.746 115.979 227.364 115.578L228.316 114.01C228.4 113.879 228.507 113.777 228.638 113.702C228.768 113.627 228.913 113.59 229.072 113.59C229.286 113.59 229.524 113.693 229.786 113.898C230.047 114.094 230.36 114.313 230.724 114.556C231.097 114.789 231.545 115.009 232.068 115.214C232.59 115.41 233.216 115.508 233.944 115.508C235.129 115.508 236.044 115.219 236.688 114.64C237.341 114.061 237.668 113.263 237.668 112.246C237.668 111.677 237.532 111.215 237.262 110.86C236.991 110.496 236.632 110.193 236.184 109.95C235.745 109.707 235.241 109.502 234.672 109.334C234.102 109.166 233.524 108.989 232.936 108.802C232.348 108.606 231.769 108.382 231.2 108.13C230.63 107.869 230.122 107.533 229.674 107.122C229.235 106.702 228.88 106.189 228.61 105.582C228.339 104.966 228.204 104.201 228.204 103.286C228.204 102.558 228.344 101.853 228.624 101.172C228.913 100.491 229.328 99.8887 229.87 99.366C230.42 98.834 231.097 98.4093 231.9 98.092C232.702 97.7747 233.617 97.616 234.644 97.616C235.801 97.616 236.86 97.798 237.822 98.162C238.792 98.526 239.628 99.044 240.328 99.716L239.53 101.284ZM254.815 101.284C254.712 101.452 254.605 101.578 254.493 101.662C254.381 101.737 254.241 101.774 254.073 101.774C253.896 101.774 253.695 101.699 253.471 101.55C253.256 101.401 252.986 101.237 252.659 101.06C252.342 100.873 251.964 100.705 251.525 100.556C251.086 100.397 250.564 100.318 249.957 100.318C249.397 100.318 248.902 100.388 248.473 100.528C248.053 100.668 247.698 100.864 247.409 101.116C247.12 101.368 246.9 101.667 246.751 102.012C246.611 102.348 246.541 102.717 246.541 103.118C246.541 103.631 246.676 104.061 246.947 104.406C247.218 104.742 247.572 105.031 248.011 105.274C248.459 105.517 248.968 105.731 249.537 105.918C250.106 106.095 250.685 106.287 251.273 106.492C251.87 106.697 252.454 106.931 253.023 107.192C253.592 107.453 254.096 107.785 254.535 108.186C254.983 108.587 255.342 109.077 255.613 109.656C255.884 110.235 256.019 110.939 256.019 111.77C256.019 112.666 255.865 113.506 255.557 114.29C255.249 115.074 254.801 115.76 254.213 116.348C253.634 116.927 252.916 117.384 252.057 117.72C251.208 118.056 250.237 118.224 249.145 118.224C248.501 118.224 247.871 118.159 247.255 118.028C246.648 117.907 246.065 117.734 245.505 117.51C244.954 117.277 244.436 116.997 243.951 116.67C243.466 116.343 243.032 115.979 242.649 115.578L243.601 114.01C243.685 113.879 243.792 113.777 243.923 113.702C244.054 113.627 244.198 113.59 244.357 113.59C244.572 113.59 244.81 113.693 245.071 113.898C245.332 114.094 245.645 114.313 246.009 114.556C246.382 114.789 246.83 115.009 247.353 115.214C247.876 115.41 248.501 115.508 249.229 115.508C250.414 115.508 251.329 115.219 251.973 114.64C252.626 114.061 252.953 113.263 252.953 112.246C252.953 111.677 252.818 111.215 252.547 110.86C252.276 110.496 251.917 110.193 251.469 109.95C251.03 109.707 250.526 109.502 249.957 109.334C249.388 109.166 248.809 108.989 248.221 108.802C247.633 108.606 247.054 108.382 246.485 108.13C245.916 107.869 245.407 107.533 244.959 107.122C244.52 106.702 244.166 106.189 243.895 105.582C243.624 104.966 243.489 104.201 243.489 103.286C243.489 102.558 243.629 101.853 243.909 101.172C244.198 100.491 244.614 99.8887 245.155 99.366C245.706 98.834 246.382 98.4093 247.185 98.092C247.988 97.7747 248.902 97.616 249.929 97.616C251.086 97.616 252.146 97.798 253.107 98.162C254.078 98.526 254.913 99.044 255.613 99.716L254.815 101.284Z" fill="#84879F"/>
<path d="M326.472 212.709L326.457 215H313.654V194.221H326.457V196.512H316.467V203.414H324.558V205.618H316.467V212.709H326.472ZM341.846 215H339.366C339.154 215 338.984 214.947 338.859 214.84C338.743 214.724 338.646 214.599 338.569 214.463L334.871 208.707C334.833 208.842 334.789 208.978 334.741 209.113C334.702 209.239 334.644 209.355 334.567 209.461L331.145 214.463C331.048 214.599 330.942 214.724 330.826 214.84C330.719 214.947 330.57 215 330.376 215H328.071L333.218 207.46L328.274 200.311H330.753C330.966 200.311 331.121 200.345 331.217 200.413C331.314 200.481 331.401 200.577 331.478 200.703L335.089 206.213C335.166 205.933 335.287 205.662 335.451 205.401L338.612 200.761C338.699 200.626 338.791 200.519 338.888 200.442C338.994 200.355 339.12 200.311 339.265 200.311H341.643L336.698 207.329L341.846 215ZM346.821 211.462C347.294 212.1 347.811 212.549 348.372 212.81C348.933 213.071 349.561 213.202 350.257 213.202C351.63 213.202 352.683 212.714 353.418 211.737C354.153 210.761 354.52 209.369 354.52 207.561C354.52 206.604 354.433 205.783 354.259 205.096C354.095 204.41 353.853 203.849 353.534 203.414C353.215 202.97 352.824 202.646 352.36 202.443C351.896 202.24 351.369 202.138 350.779 202.138C349.938 202.138 349.199 202.332 348.561 202.718C347.932 203.105 347.352 203.651 346.821 204.357V211.462ZM346.69 202.588C347.309 201.824 348.024 201.21 348.836 200.746C349.648 200.282 350.576 200.05 351.62 200.05C352.471 200.05 353.239 200.215 353.926 200.543C354.612 200.862 355.197 201.341 355.68 201.979C356.163 202.607 356.536 203.39 356.797 204.328C357.058 205.266 357.188 206.343 357.188 207.561C357.188 208.644 357.043 209.654 356.753 210.592C356.463 211.52 356.043 212.327 355.492 213.013C354.95 213.69 354.283 214.227 353.491 214.623C352.708 215.01 351.823 215.203 350.837 215.203C349.938 215.203 349.165 215.053 348.517 214.753C347.879 214.444 347.314 214.019 346.821 213.477V219.974H344.225V200.311H345.777C346.144 200.311 346.371 200.49 346.458 200.848L346.69 202.588ZM362.932 203.255C363.396 202.25 363.966 201.467 364.643 200.906C365.319 200.336 366.146 200.05 367.122 200.05C367.431 200.05 367.726 200.084 368.007 200.152C368.297 200.22 368.553 200.326 368.775 200.471L368.587 202.399C368.529 202.641 368.384 202.762 368.152 202.762C368.016 202.762 367.818 202.733 367.557 202.675C367.296 202.617 367.001 202.588 366.673 202.588C366.209 202.588 365.793 202.656 365.426 202.791C365.068 202.926 364.744 203.129 364.454 203.4C364.174 203.661 363.918 203.99 363.686 204.386C363.463 204.773 363.26 205.217 363.077 205.72V215H360.481V200.311H361.96C362.24 200.311 362.434 200.365 362.54 200.471C362.646 200.577 362.719 200.761 362.758 201.022L362.932 203.255ZM380.281 206.053C380.281 205.454 380.194 204.908 380.02 204.415C379.855 203.912 379.609 203.482 379.28 203.124C378.961 202.757 378.57 202.477 378.106 202.283C377.642 202.08 377.115 201.979 376.525 201.979C375.288 201.979 374.307 202.341 373.582 203.066C372.866 203.782 372.422 204.777 372.248 206.053H380.281ZM382.369 212.941C382.05 213.328 381.668 213.666 381.223 213.956C380.779 214.236 380.3 214.468 379.788 214.652C379.285 214.836 378.763 214.971 378.222 215.058C377.68 215.155 377.144 215.203 376.612 215.203C375.597 215.203 374.66 215.034 373.799 214.695C372.949 214.347 372.209 213.845 371.581 213.188C370.962 212.52 370.479 211.699 370.131 210.722C369.783 209.746 369.609 208.625 369.609 207.358C369.609 206.334 369.763 205.377 370.073 204.487C370.392 203.598 370.846 202.83 371.436 202.182C372.025 201.525 372.746 201.012 373.596 200.645C374.447 200.268 375.404 200.079 376.467 200.079C377.347 200.079 378.159 200.229 378.903 200.529C379.657 200.819 380.305 201.244 380.846 201.805C381.397 202.356 381.827 203.042 382.137 203.864C382.446 204.676 382.601 205.604 382.601 206.648C382.601 207.054 382.557 207.325 382.47 207.46C382.383 207.595 382.219 207.663 381.977 207.663H372.161C372.19 208.591 372.315 209.398 372.538 210.084C372.77 210.771 373.089 211.346 373.495 211.81C373.901 212.264 374.384 212.607 374.945 212.839C375.505 213.062 376.134 213.173 376.83 213.173C377.477 213.173 378.033 213.1 378.497 212.955C378.971 212.801 379.377 212.636 379.715 212.462C380.054 212.288 380.334 212.129 380.556 211.984C380.788 211.829 380.986 211.752 381.151 211.752C381.363 211.752 381.528 211.834 381.644 211.998L382.369 212.941ZM394.326 202.733C394.21 202.946 394.031 203.052 393.79 203.052C393.645 203.052 393.48 202.999 393.297 202.892C393.113 202.786 392.886 202.67 392.615 202.544C392.354 202.409 392.04 202.288 391.673 202.182C391.305 202.066 390.87 202.008 390.368 202.008C389.933 202.008 389.541 202.066 389.193 202.182C388.845 202.288 388.545 202.438 388.294 202.631C388.052 202.825 387.864 203.052 387.729 203.313C387.603 203.564 387.54 203.84 387.54 204.139C387.54 204.516 387.646 204.831 387.859 205.082C388.081 205.333 388.371 205.551 388.729 205.734C389.087 205.918 389.493 206.082 389.947 206.227C390.401 206.363 390.865 206.513 391.339 206.677C391.822 206.832 392.291 207.006 392.746 207.199C393.2 207.392 393.606 207.634 393.964 207.924C394.321 208.214 394.606 208.572 394.819 208.997C395.041 209.413 395.153 209.915 395.153 210.505C395.153 211.182 395.032 211.81 394.79 212.39C394.548 212.96 394.191 213.458 393.717 213.883C393.243 214.299 392.663 214.628 391.977 214.869C391.291 215.111 390.498 215.232 389.599 215.232C388.574 215.232 387.646 215.068 386.815 214.739C385.984 214.401 385.278 213.97 384.698 213.448L385.307 212.462C385.384 212.337 385.476 212.24 385.583 212.172C385.689 212.105 385.824 212.071 385.989 212.071C386.163 212.071 386.346 212.139 386.54 212.274C386.733 212.409 386.965 212.559 387.236 212.723C387.516 212.888 387.854 213.038 388.251 213.173C388.647 213.308 389.14 213.376 389.73 213.376C390.232 213.376 390.672 213.313 391.049 213.188C391.426 213.052 391.74 212.873 391.992 212.651C392.243 212.429 392.427 212.172 392.543 211.882C392.668 211.592 392.731 211.283 392.731 210.954C392.731 210.548 392.62 210.215 392.398 209.954C392.185 209.683 391.9 209.456 391.542 209.272C391.184 209.079 390.774 208.915 390.31 208.779C389.855 208.634 389.386 208.485 388.903 208.33C388.429 208.175 387.961 208.001 387.497 207.808C387.042 207.605 386.636 207.354 386.279 207.054C385.921 206.754 385.631 206.387 385.409 205.952C385.196 205.507 385.09 204.971 385.09 204.342C385.09 203.782 385.206 203.245 385.438 202.733C385.67 202.211 386.008 201.757 386.453 201.37C386.897 200.974 387.443 200.659 388.091 200.428C388.739 200.195 389.478 200.079 390.31 200.079C391.276 200.079 392.141 200.234 392.905 200.543C393.678 200.843 394.345 201.259 394.906 201.79L394.326 202.733ZM406.872 202.733C406.756 202.946 406.577 203.052 406.335 203.052C406.19 203.052 406.026 202.999 405.842 202.892C405.659 202.786 405.432 202.67 405.161 202.544C404.9 202.409 404.586 202.288 404.218 202.182C403.851 202.066 403.416 202.008 402.913 202.008C402.478 202.008 402.087 202.066 401.739 202.182C401.391 202.288 401.091 202.438 400.84 202.631C400.598 202.825 400.41 203.052 400.274 203.313C400.149 203.564 400.086 203.84 400.086 204.139C400.086 204.516 400.192 204.831 400.405 205.082C400.627 205.333 400.917 205.551 401.275 205.734C401.633 205.918 402.039 206.082 402.493 206.227C402.947 206.363 403.411 206.513 403.885 206.677C404.368 206.832 404.837 207.006 405.291 207.199C405.746 207.392 406.152 207.634 406.509 207.924C406.867 208.214 407.152 208.572 407.365 208.997C407.587 209.413 407.698 209.915 407.698 210.505C407.698 211.182 407.578 211.81 407.336 212.39C407.094 212.96 406.737 213.458 406.263 213.883C405.789 214.299 405.209 214.628 404.523 214.869C403.837 215.111 403.044 215.232 402.145 215.232C401.12 215.232 400.192 215.068 399.361 214.739C398.53 214.401 397.824 213.97 397.244 213.448L397.853 212.462C397.93 212.337 398.022 212.24 398.128 212.172C398.235 212.105 398.37 212.071 398.534 212.071C398.708 212.071 398.892 212.139 399.085 212.274C399.279 212.409 399.511 212.559 399.781 212.723C400.062 212.888 400.4 213.038 400.796 213.173C401.193 213.308 401.686 213.376 402.275 213.376C402.778 213.376 403.218 213.313 403.595 213.188C403.972 213.052 404.286 212.873 404.537 212.651C404.789 212.429 404.972 212.172 405.088 211.882C405.214 211.592 405.277 211.283 405.277 210.954C405.277 210.548 405.166 210.215 404.943 209.954C404.731 209.683 404.446 209.456 404.088 209.272C403.73 209.079 403.319 208.915 402.855 208.779C402.401 208.634 401.932 208.485 401.449 208.33C400.975 208.175 400.506 208.001 400.042 207.808C399.588 207.605 399.182 207.354 398.824 207.054C398.467 206.754 398.177 206.387 397.954 205.952C397.742 205.507 397.635 204.971 397.635 204.342C397.635 203.782 397.751 203.245 397.983 202.733C398.215 202.211 398.554 201.757 398.998 201.37C399.443 200.974 399.989 200.659 400.637 200.428C401.285 200.195 402.024 200.079 402.855 200.079C403.822 200.079 404.687 200.234 405.451 200.543C406.224 200.843 406.891 201.259 407.452 201.79L406.872 202.733Z" fill="#0D1657"/>
<path d="M392.91 108.84C393.01 108.9 393.087 108.967 393.14 109.04C393.187 109.107 393.21 109.19 393.21 109.29C393.21 109.403 393.153 109.537 393.04 109.69C392.927 109.843 392.803 110.037 392.67 110.27C392.53 110.497 392.403 110.773 392.29 111.1C392.177 111.42 392.12 111.81 392.12 112.27C392.12 112.703 392.18 113.087 392.3 113.42C392.413 113.747 392.57 114.023 392.77 114.25C392.97 114.47 393.207 114.637 393.48 114.75C393.747 114.863 394.037 114.92 394.35 114.92C394.75 114.92 395.083 114.823 395.35 114.63C395.61 114.43 395.833 114.17 396.02 113.85C396.207 113.523 396.37 113.157 396.51 112.75C396.643 112.337 396.783 111.917 396.93 111.49C397.077 111.057 397.243 110.637 397.43 110.23C397.61 109.817 397.84 109.45 398.12 109.13C398.4 108.803 398.743 108.543 399.15 108.35C399.557 108.15 400.057 108.05 400.65 108.05C401.277 108.05 401.867 108.157 402.42 108.37C402.967 108.583 403.443 108.897 403.85 109.31C404.257 109.717 404.577 110.22 404.81 110.82C405.043 111.413 405.16 112.09 405.16 112.85C405.16 113.783 404.993 114.63 404.66 115.39C404.32 116.15 403.863 116.8 403.29 117.34L402.37 116.78C402.297 116.727 402.237 116.663 402.19 116.59C402.137 116.51 402.11 116.423 402.11 116.33C402.11 116.243 402.147 116.147 402.22 116.04C402.287 115.927 402.373 115.8 402.48 115.66C402.587 115.52 402.703 115.36 402.83 115.18C402.957 115 403.073 114.797 403.18 114.57C403.287 114.337 403.377 114.073 403.45 113.78C403.517 113.487 403.55 113.157 403.55 112.79C403.55 112.33 403.487 111.92 403.36 111.56C403.233 111.2 403.057 110.897 402.83 110.65C402.597 110.397 402.32 110.203 402 110.07C401.68 109.937 401.323 109.87 400.93 109.87C400.497 109.87 400.143 109.97 399.87 110.17C399.59 110.363 399.357 110.62 399.17 110.94C398.983 111.26 398.827 111.627 398.7 112.04C398.567 112.453 398.433 112.873 398.3 113.3C398.16 113.727 398 114.147 397.82 114.56C397.64 114.973 397.407 115.34 397.12 115.66C396.833 115.98 396.477 116.24 396.05 116.44C395.617 116.633 395.083 116.73 394.45 116.73C393.943 116.73 393.453 116.633 392.98 116.44C392.507 116.24 392.087 115.953 391.72 115.58C391.353 115.2 391.06 114.737 390.84 114.19C390.62 113.637 390.51 113.003 390.51 112.29C390.51 111.49 390.637 110.763 390.89 110.11C391.143 109.45 391.51 108.87 391.99 108.37L392.91 108.84ZM397.84 104.211C398.72 104.211 399.51 104.091 400.21 103.851C400.903 103.611 401.493 103.271 401.98 102.831C402.46 102.384 402.83 101.847 403.09 101.221C403.343 100.594 403.47 99.8973 403.47 99.1306C403.47 98.3573 403.343 97.6573 403.09 97.0306C402.83 96.404 402.46 95.8706 401.98 95.4306C401.493 94.9906 400.903 94.6506 400.21 94.4106C399.51 94.1706 398.72 94.0506 397.84 94.0506C396.96 94.0506 396.17 94.1706 395.47 94.4106C394.77 94.6506 394.18 94.9906 393.7 95.4306C393.213 95.8706 392.84 96.404 392.58 97.0306C392.32 97.6573 392.19 98.3573 392.19 99.1306C392.19 99.8973 392.32 100.594 392.58 101.221C392.84 101.847 393.213 102.384 393.7 102.831C394.18 103.271 394.77 103.611 395.47 103.851C396.17 104.091 396.96 104.211 397.84 104.211ZM407.96 91.4006V93.0006C407.96 93.2406 407.927 93.454 407.86 93.6406C407.793 93.8273 407.677 93.9973 407.51 94.1506L404.77 96.6606C405.023 97.4206 405.15 98.244 405.15 99.1306C405.15 100.184 404.973 101.144 404.62 102.011C404.26 102.877 403.757 103.621 403.11 104.241C402.463 104.861 401.693 105.341 400.8 105.681C399.9 106.021 398.913 106.191 397.84 106.191C396.767 106.191 395.783 106.021 394.89 105.681C393.99 105.341 393.217 104.861 392.57 104.241C391.917 103.621 391.41 102.877 391.05 102.011C390.69 101.144 390.51 100.184 390.51 99.1306C390.51 98.0773 390.69 97.1173 391.05 96.2506C391.41 95.3773 391.917 94.6306 392.57 94.0106C393.217 93.3906 393.99 92.9106 394.89 92.5706C395.783 92.2306 396.767 92.0606 397.84 92.0606C398.513 92.0606 399.153 92.1306 399.76 92.2706C400.367 92.404 400.933 92.6006 401.46 92.8606C401.98 93.1206 402.453 93.4373 402.88 93.8106C403.307 94.184 403.677 94.604 403.99 95.0706L407.96 91.4006ZM403.37 81.165H405V89.295H390.67V87.365H403.37V81.165Z" fill="#84879F"/>
<path d="M346.624 131.48V143H344.976V135.104C344.976 134.976 344.979 134.837 344.984 134.688C344.995 134.533 345.008 134.379 345.024 134.224L341.32 141.064C341.176 141.347 340.955 141.488 340.656 141.488H340.392C340.088 141.488 339.867 141.347 339.728 141.064L335.968 134.208C335.984 134.363 335.995 134.517 336 134.672C336.011 134.827 336.016 134.971 336.016 135.104V143H334.368V131.48H335.768C335.933 131.48 336.061 131.496 336.152 131.528C336.243 131.555 336.325 131.643 336.4 131.792L340.096 138.488C340.176 138.643 340.251 138.803 340.32 138.968C340.395 139.128 340.461 139.293 340.52 139.464C340.584 139.293 340.651 139.125 340.72 138.96C340.795 138.789 340.872 138.627 340.952 138.472L344.592 131.792C344.667 131.643 344.749 131.555 344.84 131.528C344.931 131.496 345.059 131.48 345.224 131.48H346.624ZM352.31 134.712C352.913 134.712 353.457 134.811 353.942 135.008C354.433 135.205 354.849 135.485 355.19 135.848C355.537 136.211 355.804 136.651 355.99 137.168C356.177 137.685 356.27 138.267 356.27 138.912C356.27 139.557 356.177 140.139 355.99 140.656C355.804 141.173 355.537 141.616 355.19 141.984C354.849 142.347 354.433 142.627 353.942 142.824C353.457 143.021 352.913 143.12 352.31 143.12C351.702 143.12 351.153 143.021 350.662 142.824C350.177 142.627 349.761 142.347 349.414 141.984C349.068 141.616 348.801 141.173 348.614 140.656C348.428 140.139 348.334 139.557 348.334 138.912C348.334 138.267 348.428 137.685 348.614 137.168C348.801 136.651 349.068 136.211 349.414 135.848C349.761 135.485 350.177 135.205 350.662 135.008C351.153 134.811 351.702 134.712 352.31 134.712ZM352.31 141.776C353.046 141.776 353.593 141.531 353.95 141.04C354.313 140.544 354.494 139.837 354.494 138.92C354.494 138.003 354.313 137.296 353.95 136.8C353.593 136.299 353.046 136.048 352.31 136.048C351.564 136.048 351.009 136.299 350.646 136.8C350.284 137.296 350.102 138.003 350.102 138.92C350.102 139.837 350.284 140.544 350.646 141.04C351.009 141.531 351.564 141.776 352.31 141.776ZM359.531 135.92C359.707 135.739 359.888 135.576 360.075 135.432C360.267 135.283 360.47 135.155 360.683 135.048C360.896 134.941 361.123 134.859 361.363 134.8C361.603 134.741 361.864 134.712 362.147 134.712C362.595 134.712 362.987 134.787 363.323 134.936C363.664 135.085 363.95 135.296 364.179 135.568C364.414 135.84 364.59 136.168 364.707 136.552C364.824 136.931 364.883 137.349 364.883 137.808V143H363.171V137.808C363.171 137.259 363.043 136.832 362.787 136.528C362.536 136.224 362.152 136.072 361.635 136.072C361.251 136.072 360.894 136.16 360.563 136.336C360.238 136.512 359.931 136.752 359.643 137.056V143H357.923V134.84H358.963C359.198 134.84 359.347 134.949 359.411 135.168L359.531 135.92ZM369.804 138.848C370.337 138.848 370.737 138.712 371.004 138.44C371.27 138.168 371.404 137.813 371.404 137.376C371.404 136.928 371.27 136.573 371.004 136.312C370.737 136.051 370.337 135.92 369.804 135.92C369.276 135.92 368.876 136.051 368.604 136.312C368.337 136.573 368.204 136.928 368.204 137.376C368.204 137.589 368.238 137.787 368.308 137.968C368.377 138.149 368.478 138.307 368.612 138.44C368.745 138.568 368.91 138.669 369.108 138.744C369.31 138.813 369.542 138.848 369.804 138.848ZM372.196 143.4C372.196 143.219 372.142 143.075 372.036 142.968C371.934 142.856 371.796 142.771 371.62 142.712C371.444 142.648 371.238 142.603 371.004 142.576C370.769 142.544 370.518 142.523 370.252 142.512C369.99 142.496 369.721 142.483 369.444 142.472C369.172 142.456 368.908 142.429 368.652 142.392C368.396 142.525 368.185 142.685 368.02 142.872C367.86 143.059 367.78 143.275 367.78 143.52C367.78 143.68 367.82 143.829 367.9 143.968C367.985 144.107 368.113 144.227 368.284 144.328C368.46 144.429 368.681 144.509 368.948 144.568C369.22 144.627 369.545 144.656 369.924 144.656C370.681 144.656 371.249 144.539 371.628 144.304C372.006 144.069 372.196 143.768 372.196 143.4ZM373.924 135.136V135.776C373.924 135.989 373.796 136.12 373.54 136.168L372.724 136.304C372.862 136.613 372.932 136.957 372.932 137.336C372.932 137.736 372.852 138.099 372.692 138.424C372.537 138.749 372.321 139.027 372.044 139.256C371.766 139.485 371.436 139.661 371.052 139.784C370.668 139.907 370.252 139.968 369.804 139.968C369.633 139.968 369.465 139.96 369.3 139.944C369.14 139.923 368.982 139.896 368.828 139.864C368.673 139.955 368.558 140.051 368.484 140.152C368.409 140.253 368.372 140.357 368.372 140.464C368.372 140.64 368.449 140.771 368.604 140.856C368.758 140.941 368.961 141.003 369.212 141.04C369.468 141.077 369.758 141.101 370.084 141.112C370.409 141.123 370.74 141.141 371.076 141.168C371.412 141.195 371.742 141.24 372.068 141.304C372.393 141.363 372.681 141.464 372.932 141.608C373.188 141.747 373.393 141.936 373.548 142.176C373.702 142.416 373.78 142.728 373.78 143.112C373.78 143.464 373.692 143.808 373.516 144.144C373.34 144.48 373.084 144.779 372.748 145.04C372.417 145.301 372.012 145.509 371.532 145.664C371.052 145.824 370.505 145.904 369.892 145.904C369.284 145.904 368.753 145.845 368.3 145.728C367.852 145.611 367.476 145.451 367.172 145.248C366.873 145.051 366.649 144.821 366.5 144.56C366.356 144.299 366.284 144.027 366.284 143.744C366.284 143.36 366.404 143.032 366.644 142.76C366.889 142.488 367.22 142.275 367.636 142.12C367.412 142.013 367.23 141.867 367.092 141.68C366.958 141.493 366.892 141.248 366.892 140.944C366.892 140.704 366.98 140.453 367.156 140.192C367.332 139.931 367.596 139.709 367.948 139.528C367.542 139.304 367.222 139.008 366.988 138.64C366.753 138.267 366.636 137.832 366.636 137.336C366.636 136.931 366.713 136.565 366.868 136.24C367.028 135.915 367.249 135.637 367.532 135.408C367.814 135.179 368.148 135.003 368.532 134.88C368.921 134.757 369.345 134.696 369.804 134.696C370.508 134.696 371.121 134.843 371.644 135.136H373.924ZM378.67 134.712C379.272 134.712 379.816 134.811 380.302 135.008C380.792 135.205 381.208 135.485 381.55 135.848C381.896 136.211 382.163 136.651 382.35 137.168C382.536 137.685 382.63 138.267 382.63 138.912C382.63 139.557 382.536 140.139 382.35 140.656C382.163 141.173 381.896 141.616 381.55 141.984C381.208 142.347 380.792 142.627 380.302 142.824C379.816 143.021 379.272 143.12 378.67 143.12C378.062 143.12 377.512 143.021 377.022 142.824C376.536 142.627 376.12 142.347 375.774 141.984C375.427 141.616 375.16 141.173 374.974 140.656C374.787 140.139 374.694 139.557 374.694 138.912C374.694 138.267 374.787 137.685 374.974 137.168C375.16 136.651 375.427 136.211 375.774 135.848C376.12 135.485 376.536 135.205 377.022 135.008C377.512 134.811 378.062 134.712 378.67 134.712ZM378.67 141.776C379.406 141.776 379.952 141.531 380.31 141.04C380.672 140.544 380.854 139.837 380.854 138.92C380.854 138.003 380.672 137.296 380.31 136.8C379.952 136.299 379.406 136.048 378.67 136.048C377.923 136.048 377.368 136.299 377.006 136.8C376.643 137.296 376.462 138.003 376.462 138.92C376.462 139.837 376.643 140.544 377.006 141.04C377.368 141.531 377.923 141.776 378.67 141.776ZM394.464 137.24C394.464 138.093 394.326 138.875 394.048 139.584C393.771 140.288 393.379 140.893 392.872 141.4C392.371 141.907 391.766 142.301 391.056 142.584C390.352 142.861 389.568 143 388.704 143H384.352V131.48H388.704C389.568 131.48 390.352 131.621 391.056 131.904C391.766 132.181 392.371 132.573 392.872 133.08C393.379 133.587 393.771 134.195 394.048 134.904C394.326 135.608 394.464 136.387 394.464 137.24ZM392.552 137.24C392.552 136.579 392.462 135.984 392.28 135.456C392.104 134.928 391.848 134.483 391.512 134.12C391.182 133.757 390.779 133.48 390.304 133.288C389.83 133.091 389.296 132.992 388.704 132.992H386.232V141.488H388.704C389.296 141.488 389.83 141.392 390.304 141.2C390.779 141.008 391.182 140.731 391.512 140.368C391.848 140 392.104 139.555 392.28 139.032C392.462 138.504 392.552 137.907 392.552 137.24ZM400.716 141.52C401.138 141.52 401.492 141.472 401.78 141.376C402.074 141.275 402.311 141.139 402.492 140.968C402.679 140.797 402.812 140.597 402.892 140.368C402.978 140.133 403.02 139.883 403.02 139.616C403.02 139.072 402.834 138.645 402.46 138.336C402.092 138.021 401.508 137.864 400.708 137.864H398.396V141.52H400.716ZM398.396 132.944V136.544H400.268C401.068 136.544 401.666 136.389 402.06 136.08C402.455 135.771 402.652 135.325 402.652 134.744C402.652 134.109 402.466 133.651 402.092 133.368C401.724 133.085 401.146 132.944 400.356 132.944H398.396ZM400.356 131.48C401.092 131.48 401.722 131.552 402.244 131.696C402.767 131.835 403.196 132.035 403.532 132.296C403.868 132.557 404.114 132.877 404.268 133.256C404.428 133.629 404.508 134.051 404.508 134.52C404.508 134.792 404.466 135.056 404.38 135.312C404.3 135.563 404.172 135.8 403.996 136.024C403.826 136.243 403.61 136.44 403.348 136.616C403.087 136.792 402.778 136.939 402.42 137.056C404.052 137.403 404.868 138.269 404.868 139.656C404.868 140.147 404.775 140.597 404.588 141.008C404.407 141.413 404.14 141.765 403.788 142.064C403.442 142.357 403.012 142.587 402.5 142.752C401.988 142.917 401.404 143 400.748 143H396.524V131.48H400.356Z" fill="#0D1657"/>
<path d="M377.407 271V265.057L376.707 264.959C376.59 264.936 376.495 264.894 376.42 264.833C376.35 264.772 376.315 264.686 376.315 264.574V263.958H377.407V263.657C377.407 263.218 377.477 262.815 377.617 262.446C377.757 262.077 377.969 261.758 378.254 261.487C378.539 261.216 378.893 261.006 379.318 260.857C379.747 260.703 380.249 260.626 380.823 260.626C381.01 260.626 381.201 260.638 381.397 260.661C381.598 260.684 381.768 260.719 381.908 260.766L381.859 261.55C381.85 261.648 381.791 261.704 381.684 261.718C381.577 261.727 381.434 261.732 381.257 261.732C380.823 261.732 380.454 261.774 380.151 261.858C379.848 261.937 379.6 262.061 379.409 262.229C379.218 262.392 379.078 262.598 378.989 262.845C378.905 263.088 378.863 263.372 378.863 263.699V263.958H383.238V271H381.733V265.043H378.912V271H377.407ZM387.695 267.367C388.162 267.367 388.512 267.248 388.745 267.01C388.979 266.772 389.095 266.462 389.095 266.079C389.095 265.687 388.979 265.377 388.745 265.148C388.512 264.919 388.162 264.805 387.695 264.805C387.233 264.805 386.883 264.919 386.645 265.148C386.412 265.377 386.295 265.687 386.295 266.079C386.295 266.266 386.326 266.438 386.386 266.597C386.447 266.756 386.536 266.893 386.652 267.01C386.769 267.122 386.914 267.211 387.086 267.276C387.264 267.337 387.467 267.367 387.695 267.367ZM389.788 271.35C389.788 271.191 389.742 271.065 389.648 270.972C389.56 270.874 389.438 270.799 389.284 270.748C389.13 270.692 388.951 270.652 388.745 270.629C388.54 270.601 388.321 270.582 388.087 270.573C387.859 270.559 387.623 270.547 387.38 270.538C387.142 270.524 386.911 270.501 386.687 270.468C386.463 270.585 386.279 270.725 386.134 270.888C385.994 271.051 385.924 271.24 385.924 271.455C385.924 271.595 385.959 271.726 386.029 271.847C386.104 271.968 386.216 272.073 386.365 272.162C386.519 272.251 386.713 272.321 386.946 272.372C387.184 272.423 387.469 272.449 387.8 272.449C388.463 272.449 388.96 272.346 389.291 272.141C389.623 271.936 389.788 271.672 389.788 271.35ZM391.3 264.119V264.679C391.3 264.866 391.188 264.98 390.964 265.022L390.25 265.141C390.372 265.412 390.432 265.713 390.432 266.044C390.432 266.394 390.362 266.711 390.222 266.996C390.087 267.281 389.898 267.523 389.655 267.724C389.413 267.925 389.123 268.079 388.787 268.186C388.451 268.293 388.087 268.347 387.695 268.347C387.546 268.347 387.399 268.34 387.254 268.326C387.114 268.307 386.977 268.284 386.841 268.256C386.706 268.335 386.606 268.419 386.54 268.508C386.475 268.597 386.442 268.688 386.442 268.781C386.442 268.935 386.51 269.049 386.645 269.124C386.781 269.199 386.958 269.252 387.177 269.285C387.401 269.318 387.656 269.339 387.94 269.348C388.225 269.357 388.514 269.374 388.808 269.397C389.102 269.42 389.392 269.46 389.676 269.516C389.961 269.567 390.213 269.656 390.432 269.782C390.656 269.903 390.836 270.069 390.971 270.279C391.107 270.489 391.174 270.762 391.174 271.098C391.174 271.406 391.097 271.707 390.943 272.001C390.789 272.295 390.565 272.556 390.271 272.785C389.982 273.014 389.627 273.196 389.207 273.331C388.787 273.471 388.309 273.541 387.772 273.541C387.24 273.541 386.776 273.49 386.379 273.387C385.987 273.284 385.658 273.144 385.392 272.967C385.131 272.794 384.935 272.594 384.804 272.365C384.678 272.136 384.615 271.898 384.615 271.651C384.615 271.315 384.72 271.028 384.93 270.79C385.145 270.552 385.434 270.365 385.798 270.23C385.602 270.137 385.444 270.008 385.322 269.845C385.206 269.682 385.147 269.467 385.147 269.201C385.147 268.991 385.224 268.772 385.378 268.543C385.532 268.314 385.763 268.121 386.071 267.962C385.717 267.766 385.437 267.507 385.231 267.185C385.026 266.858 384.923 266.478 384.923 266.044C384.923 265.689 384.991 265.37 385.126 265.085C385.266 264.8 385.46 264.558 385.707 264.357C385.955 264.156 386.246 264.002 386.582 263.895C386.923 263.788 387.294 263.734 387.695 263.734C388.311 263.734 388.848 263.862 389.305 264.119H391.3ZM392.489 271V263.86H393.399C393.605 263.86 393.735 263.956 393.791 264.147L393.889 264.77C394.02 264.621 394.155 264.485 394.295 264.364C394.435 264.238 394.585 264.131 394.743 264.042C394.907 263.949 395.079 263.876 395.261 263.825C395.448 263.774 395.649 263.748 395.863 263.748C396.092 263.748 396.302 263.781 396.493 263.846C396.685 263.911 396.853 264.005 396.997 264.126C397.147 264.247 397.275 264.394 397.382 264.567C397.49 264.74 397.578 264.933 397.648 265.148C397.756 264.901 397.891 264.688 398.054 264.511C398.218 264.334 398.4 264.189 398.6 264.077C398.801 263.965 399.013 263.883 399.237 263.832C399.466 263.776 399.697 263.748 399.93 263.748C400.313 263.748 400.654 263.809 400.952 263.93C401.256 264.051 401.51 264.229 401.715 264.462C401.925 264.691 402.084 264.973 402.191 265.309C402.299 265.645 402.352 266.028 402.352 266.457V271H400.847V266.457C400.847 265.953 400.738 265.575 400.518 265.323C400.304 265.066 399.984 264.938 399.559 264.938C399.368 264.938 399.188 264.971 399.02 265.036C398.852 265.101 398.705 265.197 398.579 265.323C398.453 265.449 398.353 265.608 398.278 265.799C398.208 265.986 398.173 266.205 398.173 266.457V271H396.668V266.457C396.668 265.934 396.563 265.552 396.353 265.309C396.143 265.062 395.835 264.938 395.429 264.938C395.149 264.938 394.89 265.01 394.652 265.155C394.414 265.295 394.195 265.489 393.994 265.736V271H392.489ZM407.925 267.878C407.389 267.897 406.936 267.941 406.567 268.011C406.199 268.076 405.9 268.163 405.671 268.27C405.443 268.373 405.277 268.496 405.174 268.641C405.076 268.786 405.027 268.944 405.027 269.117C405.027 269.285 405.053 269.43 405.104 269.551C405.16 269.668 405.235 269.766 405.328 269.845C405.426 269.92 405.538 269.976 405.664 270.013C405.795 270.046 405.937 270.062 406.091 270.062C406.483 270.062 406.819 269.99 407.099 269.845C407.384 269.696 407.659 269.481 407.925 269.201V267.878ZM403.935 264.854C404.743 264.103 405.704 263.727 406.819 263.727C407.23 263.727 407.594 263.795 407.911 263.93C408.233 264.061 408.502 264.247 408.716 264.49C408.936 264.733 409.101 265.022 409.213 265.358C409.33 265.689 409.388 266.058 409.388 266.464V271H408.716C408.572 271 408.462 270.979 408.387 270.937C408.313 270.89 408.25 270.799 408.198 270.664L408.051 270.083C407.869 270.246 407.69 270.393 407.512 270.524C407.335 270.65 407.151 270.757 406.959 270.846C406.773 270.935 406.57 271 406.35 271.042C406.136 271.089 405.898 271.112 405.636 271.112C405.347 271.112 405.076 271.072 404.824 270.993C404.577 270.914 404.362 270.795 404.18 270.636C403.998 270.473 403.854 270.272 403.746 270.034C403.644 269.796 403.592 269.516 403.592 269.194C403.592 268.919 403.665 268.65 403.809 268.389C403.959 268.128 404.201 267.894 404.537 267.689C404.878 267.479 405.324 267.306 405.874 267.171C406.43 267.036 407.113 266.959 407.925 266.94V266.464C407.925 265.951 407.816 265.568 407.596 265.316C407.377 265.064 407.055 264.938 406.63 264.938C406.341 264.938 406.098 264.975 405.902 265.05C405.706 265.12 405.536 265.197 405.391 265.281C405.247 265.365 405.118 265.444 405.006 265.519C404.894 265.589 404.775 265.624 404.649 265.624C404.547 265.624 404.458 265.598 404.383 265.547C404.313 265.491 404.255 265.423 404.208 265.344L403.935 264.854Z" fill="#84879F"/>
</g>
</g>
<defs>
<filter id="filter0_d_3_56" x="0" y="0" width="442" height="288" filterUnits="userSpaceOnUse" color-interpolation-filters="sRGB">
<feFlood flood-opacity="0" result="BackgroundImageFix"/>
<feColorMatrix in="SourceAlpha" type="matrix" values="0 0 0 0 0 0 0 0 0 0 0 0 0 0 0 0 0 0 127 0" result="hardAlpha"/>
<feOffset dy="4"/>
<feGaussianBlur stdDeviation="2"/>
<feComposite in2="hardAlpha" operator="out"/>
<feColorMatrix type="matrix" values="0 0 0 0 0 0 0 0 0 0 0 0 0 0 0 0 0 0 0.25 0"/>
<feBlend mode="normal" in2="BackgroundImageFix" result="effect1_dropShadow_3_56"/>
<feBlend mode="normal" in="SourceGraphic" in2="effect1_dropShadow_3_56" result="shape"/>
</filter>
<clipPath id="clip0_3_56">
<rect width="434" height="280" fill="white" transform="translate(4)"/>
</clipPath>
</defs>
</svg>
