<svg width="317" height="280" viewBox="0 0 317 280" fill="none" xmlns="http://www.w3.org/2000/svg">
<path d="M118.848 166C120.555 166 122.048 165.797 123.328 165.392C124.608 164.965 125.675 164.379 126.528 163.632C127.381 162.885 128.021 162 128.448 160.976C128.875 159.931 129.088 158.779 129.088 157.52C129.088 155.003 128.256 153.083 126.592 151.76C124.928 150.437 122.411 149.776 119.04 149.776H112.96V166H118.848ZM140.544 190H133.856C132.533 190 131.573 189.488 130.976 188.464L120.224 172.944C119.861 172.411 119.467 172.027 119.04 171.792C118.613 171.557 117.973 171.44 117.12 171.44H112.96V190H105.472V143.92H119.04C122.069 143.92 124.672 144.229 126.848 144.848C129.045 145.467 130.848 146.352 132.256 147.504C133.664 148.635 134.699 150 135.36 151.6C136.043 153.2 136.384 154.981 136.384 156.944C136.384 158.544 136.139 160.037 135.648 161.424C135.179 162.811 134.485 164.069 133.568 165.2C132.672 166.331 131.563 167.312 130.24 168.144C128.917 168.976 127.413 169.627 125.728 170.096C126.645 170.651 127.435 171.429 128.096 172.432L140.544 190ZM164.1 170C164.1 168.848 163.929 167.781 163.588 166.8C163.268 165.797 162.788 164.933 162.148 164.208C161.508 163.461 160.708 162.885 159.748 162.48C158.809 162.053 157.721 161.84 156.484 161.84C153.988 161.84 152.025 162.555 150.596 163.984C149.167 165.413 148.26 167.419 147.876 170H164.1ZM147.684 174.224C147.769 176.08 148.057 177.691 148.548 179.056C149.039 180.4 149.689 181.52 150.5 182.416C151.332 183.312 152.313 183.984 153.444 184.432C154.596 184.859 155.876 185.072 157.284 185.072C158.628 185.072 159.791 184.923 160.772 184.624C161.753 184.304 162.607 183.963 163.332 183.6C164.057 183.216 164.676 182.875 165.188 182.576C165.7 182.256 166.169 182.096 166.596 182.096C167.151 182.096 167.577 182.309 167.876 182.736L169.828 185.264C169.017 186.224 168.1 187.035 167.076 187.696C166.052 188.357 164.964 188.901 163.812 189.328C162.66 189.733 161.476 190.021 160.26 190.192C159.044 190.384 157.86 190.48 156.708 190.48C154.447 190.48 152.345 190.107 150.404 189.36C148.484 188.592 146.809 187.472 145.38 186C143.972 184.528 142.863 182.704 142.052 180.528C141.263 178.352 140.868 175.845 140.868 173.008C140.868 170.747 141.22 168.635 141.924 166.672C142.649 164.709 143.673 163.003 144.996 161.552C146.34 160.101 147.961 158.96 149.86 158.128C151.78 157.275 153.945 156.848 156.356 156.848C158.361 156.848 160.217 157.179 161.924 157.84C163.631 158.48 165.103 159.429 166.34 160.688C167.577 161.947 168.537 163.493 169.22 165.328C169.924 167.141 170.276 169.211 170.276 171.536C170.276 172.603 170.159 173.317 169.924 173.68C169.689 174.043 169.263 174.224 168.644 174.224H147.684ZM194.132 175.728C191.679 175.813 189.609 176.016 187.924 176.336C186.239 176.635 184.873 177.029 183.828 177.52C182.783 177.989 182.025 178.555 181.556 179.216C181.108 179.877 180.884 180.603 180.884 181.392C180.884 182.16 181.001 182.821 181.236 183.376C181.492 183.909 181.833 184.357 182.26 184.72C182.708 185.061 183.22 185.317 183.796 185.488C184.393 185.637 185.044 185.712 185.748 185.712C187.54 185.712 189.076 185.381 190.356 184.72C191.657 184.037 192.916 183.056 194.132 181.776V175.728ZM175.892 161.904C179.583 158.469 183.977 156.752 189.076 156.752C190.953 156.752 192.617 157.061 194.068 157.68C195.54 158.277 196.767 159.131 197.748 160.24C198.751 161.349 199.508 162.672 200.02 164.208C200.553 165.723 200.82 167.408 200.82 169.264V190H197.748C197.087 190 196.585 189.904 196.244 189.712C195.903 189.499 195.615 189.083 195.38 188.464L194.708 185.808C193.876 186.555 193.055 187.227 192.244 187.824C191.433 188.4 190.591 188.891 189.716 189.296C188.863 189.701 187.935 190 186.932 190.192C185.951 190.405 184.863 190.512 183.668 190.512C182.345 190.512 181.108 190.331 179.956 189.968C178.825 189.605 177.844 189.061 177.012 188.336C176.18 187.589 175.519 186.672 175.028 185.584C174.559 184.496 174.324 183.216 174.324 181.744C174.324 180.485 174.655 179.259 175.316 178.064C175.999 176.869 177.108 175.803 178.644 174.864C180.201 173.904 182.239 173.115 184.756 172.496C187.295 171.877 190.42 171.525 194.132 171.44V169.264C194.132 166.917 193.631 165.168 192.628 164.016C191.625 162.864 190.153 162.288 188.212 162.288C186.889 162.288 185.78 162.459 184.884 162.8C183.988 163.12 183.209 163.472 182.548 163.856C181.887 164.24 181.3 164.603 180.788 164.944C180.276 165.264 179.732 165.424 179.156 165.424C178.687 165.424 178.281 165.307 177.94 165.072C177.62 164.816 177.353 164.507 177.14 164.144L175.892 161.904ZM231.952 163.76C231.738 164.037 231.536 164.251 231.344 164.4C231.152 164.549 230.874 164.624 230.512 164.624C230.149 164.624 229.765 164.496 229.36 164.24C228.976 163.984 228.506 163.707 227.952 163.408C227.418 163.088 226.768 162.8 226 162.544C225.232 162.288 224.272 162.16 223.12 162.16C221.626 162.16 220.314 162.427 219.184 162.96C218.074 163.493 217.136 164.261 216.368 165.264C215.621 166.245 215.056 167.451 214.672 168.88C214.309 170.288 214.128 171.877 214.128 173.648C214.128 175.483 214.33 177.115 214.736 178.544C215.141 179.973 215.717 181.179 216.464 182.16C217.232 183.141 218.149 183.888 219.216 184.4C220.304 184.912 221.52 185.168 222.864 185.168C224.186 185.168 225.264 185.008 226.096 184.688C226.928 184.368 227.621 184.016 228.176 183.632C228.73 183.248 229.2 182.896 229.584 182.576C229.989 182.256 230.416 182.096 230.864 182.096C231.418 182.096 231.845 182.309 232.144 182.736L234.096 185.264C233.306 186.224 232.432 187.035 231.472 187.696C230.512 188.357 229.498 188.901 228.432 189.328C227.365 189.733 226.256 190.021 225.104 190.192C223.952 190.384 222.789 190.48 221.616 190.48C219.589 190.48 217.69 190.107 215.92 189.36C214.17 188.592 212.634 187.493 211.312 186.064C210.01 184.613 208.976 182.853 208.208 180.784C207.461 178.693 207.088 176.315 207.088 173.648C207.088 171.237 207.429 169.008 208.112 166.96C208.794 164.891 209.786 163.109 211.088 161.616C212.41 160.123 214.042 158.96 215.984 158.128C217.925 157.275 220.165 156.848 222.704 156.848C225.072 156.848 227.152 157.232 228.944 158C230.757 158.768 232.368 159.856 233.776 161.264L231.952 163.76ZM250.094 190.512C247.384 190.512 245.294 189.755 243.822 188.24C242.371 186.704 241.646 184.549 241.646 181.776V162.768H238.062C237.678 162.768 237.347 162.651 237.07 162.416C236.792 162.16 236.654 161.787 236.654 161.296V158.512L241.934 157.744L243.438 148.304C243.544 147.941 243.726 147.653 243.982 147.44C244.238 147.205 244.579 147.088 245.006 147.088H248.526V157.808H257.582V162.768H248.526V181.296C248.526 182.469 248.814 183.365 249.39 183.984C249.966 184.603 250.734 184.912 251.694 184.912C252.227 184.912 252.686 184.848 253.069 184.72C253.454 184.571 253.784 184.421 254.062 184.272C254.339 184.101 254.574 183.952 254.766 183.824C254.979 183.675 255.182 183.6 255.374 183.6C255.758 183.6 256.067 183.813 256.302 184.24L258.35 187.6C257.283 188.539 256.024 189.264 254.574 189.776C253.123 190.267 251.63 190.512 250.094 190.512Z" fill="#0D1657"/>
<path d="M46.034 198.024C45.254 197.256 44.624 196.41 44.144 195.486C43.664 194.55 43.424 193.476 43.424 192.264C43.424 191.256 43.592 190.374 43.928 189.618C44.264 188.85 44.738 188.208 45.35 187.692C45.95 187.176 46.676 186.786 47.528 186.522C48.38 186.258 49.322 186.126 50.354 186.126L62 186.126L62 189.654L50.354 189.654C49.046 189.654 48.032 189.954 47.312 190.554C46.58 191.154 46.214 192.072 46.214 193.308C46.214 194.208 46.43 195.054 46.862 195.846C47.282 196.626 47.858 197.352 48.59 198.024L62 198.024L62 201.534L35.432 201.534L35.432 198.024L46.034 198.024ZM62.288 175.912C62.288 177.388 61.874 178.528 61.046 179.332C60.218 180.124 59.036 180.52 57.5 180.52L46.556 180.52L46.556 182.644C46.556 182.848 46.496 183.022 46.376 183.166C46.244 183.298 46.052 183.364 45.8 183.364L44.378 183.364L43.964 180.394L38.51 179.602C38.306 179.554 38.15 179.464 38.042 179.332C37.922 179.188 37.862 179.008 37.862 178.792L37.862 177.01L44 177.01L44 171.826L46.556 171.826L46.556 177.01L57.266 177.01C57.986 177.01 58.526 176.836 58.886 176.488C59.234 176.128 59.408 175.672 59.408 175.12C59.408 174.796 59.366 174.52 59.282 174.292C59.198 174.052 59.108 173.848 59.012 173.68C58.904 173.512 58.808 173.368 58.724 173.248C58.64 173.128 58.598 173.02 58.598 172.924C58.598 172.804 58.628 172.714 58.688 172.654C58.736 172.582 58.82 172.51 58.94 172.438L60.632 171.394C61.16 171.97 61.568 172.654 61.856 173.446C62.144 174.238 62.288 175.06 62.288 175.912ZM62 168.593L43.712 168.593L43.712 166.487C43.712 165.995 43.946 165.689 44.414 165.569L46.16 165.317C45.356 164.645 44.702 163.901 44.198 163.085C43.682 162.257 43.424 161.291 43.424 160.187C43.424 158.975 43.76 157.991 44.432 157.235C45.092 156.479 45.992 155.927 47.132 155.579C46.484 155.315 45.926 154.973 45.458 154.553C44.99 154.133 44.606 153.665 44.306 153.149C44.006 152.633 43.784 152.087 43.64 151.511C43.496 150.923 43.424 150.329 43.424 149.729C43.424 148.757 43.58 147.893 43.892 147.137C44.192 146.369 44.636 145.721 45.224 145.193C45.812 144.665 46.538 144.263 47.402 143.987C48.266 143.711 49.25 143.573 50.354 143.573L62 143.573L62 147.101L50.354 147.101C48.986 147.101 47.954 147.401 47.258 148.001C46.562 148.589 46.214 149.453 46.214 150.593C46.214 151.097 46.304 151.577 46.484 152.033C46.652 152.489 46.91 152.891 47.258 153.239C47.606 153.575 48.038 153.845 48.554 154.049C49.07 154.241 49.67 154.337 50.354 154.337L62 154.337L62 157.865L50.354 157.865C48.938 157.865 47.894 158.147 47.222 158.711C46.55 159.275 46.214 160.103 46.214 161.195C46.214 161.951 46.412 162.653 46.808 163.301C47.204 163.949 47.744 164.543 48.428 165.083L62 165.083L62 168.593ZM35.432 135.25L62 135.25L62 138.778L35.432 138.778L35.432 135.25Z" fill="#84879F"/>
<path d="M177.76 222.25C178.156 221.83 178.57 221.446 179.002 221.098C179.434 220.75 179.89 220.456 180.37 220.216C180.862 219.964 181.384 219.772 181.936 219.64C182.5 219.496 183.1 219.424 183.736 219.424C184.744 219.424 185.626 219.592 186.382 219.928C187.15 220.264 187.792 220.738 188.308 221.35C188.824 221.95 189.214 222.676 189.478 223.528C189.742 224.38 189.874 225.322 189.874 226.354V238H186.346V226.354C186.346 225.046 186.046 224.032 185.446 223.312C184.846 222.58 183.928 222.214 182.692 222.214C181.792 222.214 180.946 222.43 180.154 222.862C179.374 223.282 178.648 223.858 177.976 224.59V238H174.466V219.712H176.572C177.064 219.712 177.37 219.946 177.49 220.414L177.76 222.25ZM202.405 219.424C203.749 219.424 204.961 219.646 206.041 220.09C207.133 220.522 208.057 221.152 208.813 221.98C209.581 222.796 210.169 223.786 210.577 224.95C210.985 226.102 211.189 227.398 211.189 228.838C211.189 230.278 210.985 231.58 210.577 232.744C210.169 233.908 209.581 234.898 208.813 235.714C208.057 236.53 207.133 237.16 206.041 237.604C204.961 238.036 203.749 238.252 202.405 238.252C201.049 238.252 199.825 238.036 198.733 237.604C197.653 237.16 196.729 236.53 195.961 235.714C195.193 234.898 194.599 233.908 194.179 232.744C193.771 231.58 193.567 230.278 193.567 228.838C193.567 227.398 193.771 226.102 194.179 224.95C194.599 223.786 195.193 222.796 195.961 221.98C196.729 221.152 197.653 220.522 198.733 220.09C199.825 219.646 201.049 219.424 202.405 219.424ZM202.405 235.516C204.133 235.516 205.423 234.934 206.275 233.77C207.127 232.606 207.553 230.968 207.553 228.856C207.553 226.744 207.127 225.106 206.275 223.942C205.423 222.766 204.133 222.178 202.405 222.178C200.653 222.178 199.345 222.766 198.481 223.942C197.629 225.106 197.203 226.744 197.203 228.856C197.203 230.968 197.629 232.606 198.481 233.77C199.345 234.934 200.653 235.516 202.405 235.516ZM226.897 224.14C226.321 223.384 225.697 222.856 225.025 222.556C224.365 222.256 223.621 222.106 222.793 222.106C221.185 222.106 219.937 222.688 219.049 223.852C218.173 225.004 217.735 226.69 217.735 228.91C217.735 230.074 217.831 231.07 218.023 231.898C218.227 232.714 218.515 233.386 218.887 233.914C219.271 234.43 219.739 234.814 220.291 235.066C220.843 235.306 221.467 235.426 222.163 235.426C223.183 235.426 224.065 235.198 224.809 234.742C225.553 234.286 226.249 233.644 226.897 232.816V224.14ZM230.425 211.432V238H228.301C227.809 238 227.503 237.766 227.383 237.298L227.077 235.192C226.297 236.116 225.409 236.86 224.413 237.424C223.429 237.976 222.289 238.252 220.993 238.252C219.949 238.252 219.001 238.048 218.149 237.64C217.309 237.232 216.589 236.638 215.989 235.858C215.389 235.066 214.927 234.088 214.603 232.924C214.279 231.76 214.117 230.422 214.117 228.91C214.117 227.554 214.297 226.294 214.657 225.13C215.017 223.966 215.539 222.958 216.223 222.106C216.907 221.254 217.735 220.588 218.707 220.108C219.679 219.616 220.777 219.37 222.001 219.37C223.105 219.37 224.041 219.55 224.809 219.91C225.589 220.27 226.285 220.78 226.897 221.44V211.432H230.425ZM247.435 226.822C247.435 226.126 247.333 225.484 247.129 224.896C246.937 224.308 246.649 223.798 246.265 223.366C245.881 222.934 245.413 222.598 244.861 222.358C244.309 222.118 243.673 221.998 242.953 221.998C241.477 221.998 240.313 222.424 239.461 223.276C238.621 224.128 238.087 225.31 237.859 226.822H247.435ZM250.333 235.39C249.901 235.894 249.403 236.332 248.839 236.704C248.275 237.064 247.675 237.358 247.039 237.586C246.403 237.814 245.743 237.982 245.059 238.09C244.387 238.198 243.721 238.252 243.061 238.252C241.801 238.252 240.631 238.042 239.551 237.622C238.483 237.19 237.553 236.566 236.761 235.75C235.981 234.922 235.369 233.902 234.925 232.69C234.493 231.466 234.277 230.062 234.277 228.478C234.277 227.206 234.475 226.024 234.871 224.932C235.267 223.828 235.831 222.868 236.563 222.052C237.307 221.236 238.213 220.594 239.281 220.126C240.349 219.658 241.549 219.424 242.881 219.424C243.997 219.424 245.023 219.61 245.959 219.982C246.907 220.342 247.723 220.87 248.407 221.566C249.091 222.262 249.625 223.12 250.009 224.14C250.405 225.16 250.603 226.324 250.603 227.632C250.603 228.172 250.543 228.538 250.423 228.73C250.303 228.91 250.081 229 249.757 229H237.769C237.805 230.092 237.961 231.046 238.237 231.862C238.513 232.666 238.891 233.338 239.371 233.878C239.863 234.418 240.445 234.82 241.117 235.084C241.789 235.348 242.539 235.48 243.367 235.48C244.147 235.48 244.819 235.39 245.383 235.21C245.959 235.03 246.451 234.838 246.859 234.634C247.279 234.418 247.627 234.22 247.903 234.04C248.191 233.86 248.443 233.77 248.659 233.77C248.947 233.77 249.169 233.878 249.325 234.094L250.333 235.39ZM253.8 235.894C253.8 235.57 253.86 235.264 253.98 234.976C254.1 234.688 254.262 234.436 254.466 234.22C254.682 234.004 254.934 233.836 255.222 233.716C255.51 233.584 255.822 233.518 256.158 233.518C256.482 233.518 256.788 233.584 257.076 233.716C257.364 233.836 257.616 234.004 257.832 234.22C258.048 234.436 258.216 234.688 258.336 234.976C258.468 235.264 258.534 235.57 258.534 235.894C258.534 236.23 258.468 236.542 258.336 236.83C258.216 237.118 258.048 237.37 257.832 237.586C257.616 237.802 257.364 237.97 257.076 238.09C256.788 238.21 256.482 238.27 256.158 238.27C255.822 238.27 255.51 238.21 255.222 238.09C254.934 237.97 254.682 237.802 254.466 237.586C254.262 237.37 254.1 237.118 253.98 236.83C253.86 236.542 253.8 236.23 253.8 235.894ZM266.556 219.712V239.152C266.556 239.908 266.454 240.61 266.25 241.258C266.058 241.918 265.746 242.488 265.314 242.968C264.894 243.46 264.342 243.844 263.658 244.12C262.986 244.396 262.17 244.534 261.21 244.534C260.814 244.534 260.454 244.504 260.13 244.444C259.794 244.384 259.458 244.3 259.122 244.192L259.266 242.284C259.314 242.056 259.422 241.93 259.59 241.906C259.746 241.882 260.052 241.87 260.508 241.87C261.432 241.87 262.086 241.66 262.47 241.24C262.854 240.82 263.046 240.124 263.046 239.152V219.712H266.556ZM267.222 214.06C267.222 214.384 267.156 214.696 267.024 214.996C266.892 215.284 266.712 215.542 266.484 215.77C266.256 215.986 265.992 216.16 265.692 216.292C265.404 216.412 265.092 216.472 264.756 216.472C264.432 216.472 264.126 216.412 263.838 216.292C263.55 216.16 263.292 215.986 263.064 215.77C262.848 215.542 262.674 215.284 262.542 214.996C262.422 214.696 262.362 214.384 262.362 214.06C262.362 213.724 262.422 213.412 262.542 213.124C262.674 212.824 262.848 212.566 263.064 212.35C263.292 212.122 263.55 211.948 263.838 211.828C264.126 211.696 264.432 211.63 264.756 211.63C265.092 211.63 265.404 211.696 265.692 211.828C265.992 211.948 266.256 212.122 266.484 212.35C266.712 212.566 266.892 212.824 267.024 213.124C267.156 213.412 267.222 213.724 267.222 214.06ZM282.42 222.862C282.324 223.018 282.222 223.132 282.114 223.204C282.006 223.264 281.868 223.294 281.7 223.294C281.508 223.294 281.292 223.228 281.052 223.096C280.824 222.964 280.542 222.82 280.206 222.664C279.882 222.508 279.498 222.364 279.054 222.232C278.61 222.1 278.082 222.034 277.47 222.034C276.966 222.034 276.504 222.1 276.084 222.232C275.676 222.352 275.328 222.526 275.04 222.754C274.752 222.97 274.53 223.234 274.374 223.546C274.218 223.846 274.14 224.17 274.14 224.518C274.14 224.974 274.272 225.352 274.536 225.652C274.812 225.952 275.166 226.21 275.598 226.426C276.042 226.642 276.54 226.84 277.092 227.02C277.656 227.188 278.226 227.368 278.802 227.56C279.39 227.752 279.96 227.974 280.512 228.226C281.076 228.466 281.574 228.772 282.006 229.144C282.45 229.504 282.804 229.942 283.068 230.458C283.344 230.974 283.482 231.604 283.482 232.348C283.482 233.2 283.326 233.992 283.014 234.724C282.714 235.444 282.264 236.068 281.664 236.596C281.076 237.124 280.344 237.538 279.468 237.838C278.592 238.138 277.59 238.288 276.462 238.288C275.202 238.288 274.038 238.078 272.97 237.658C271.902 237.238 271.008 236.704 270.288 236.056L271.116 234.706C271.212 234.538 271.332 234.412 271.476 234.328C271.62 234.232 271.812 234.184 272.052 234.184C272.28 234.184 272.514 234.268 272.754 234.436C272.994 234.604 273.282 234.79 273.618 234.994C273.954 235.186 274.362 235.366 274.842 235.534C275.322 235.69 275.922 235.768 276.642 235.768C277.242 235.768 277.764 235.696 278.208 235.552C278.652 235.396 279.018 235.192 279.306 234.94C279.606 234.676 279.828 234.376 279.972 234.04C280.116 233.704 280.188 233.35 280.188 232.978C280.188 232.498 280.05 232.102 279.774 231.79C279.51 231.466 279.156 231.19 278.712 230.962C278.28 230.734 277.782 230.536 277.218 230.368C276.654 230.2 276.078 230.02 275.49 229.828C274.902 229.636 274.326 229.414 273.762 229.162C273.198 228.91 272.694 228.592 272.25 228.208C271.818 227.824 271.464 227.356 271.188 226.804C270.924 226.252 270.792 225.58 270.792 224.788C270.792 224.08 270.936 223.402 271.224 222.754C271.524 222.106 271.95 221.536 272.502 221.044C273.066 220.552 273.756 220.162 274.572 219.874C275.4 219.574 276.342 219.424 277.398 219.424C278.61 219.424 279.702 219.616 280.674 220C281.658 220.384 282.498 220.912 283.194 221.584L282.42 222.862Z" fill="#0D1657"/>
<path d="M40.82 244.31C40.52 243.923 40.19 243.653 39.83 243.5C39.47 243.347 39.08 243.27 38.66 243.27C37.82 243.27 37.1633 243.58 36.69 244.2C36.2167 244.813 35.98 245.723 35.98 246.93C35.98 247.557 36.0333 248.093 36.14 248.54C36.2467 248.98 36.4 249.34 36.6 249.62C36.8 249.9 37.0433 250.103 37.33 250.23C37.6167 250.357 37.94 250.42 38.3 250.42C38.8467 250.42 39.3167 250.303 39.71 250.07C40.11 249.83 40.48 249.493 40.82 249.06V244.31ZM42.97 237.2V252H41.67C41.3833 252 41.2 251.863 41.12 251.59L40.93 250.48C40.5033 250.98 40.0167 251.383 39.47 251.69C38.93 251.997 38.3 252.15 37.58 252.15C37.0067 252.15 36.4867 252.037 36.02 251.81C35.5533 251.577 35.1533 251.24 34.82 250.8C34.4867 250.36 34.2267 249.817 34.04 249.17C33.86 248.517 33.77 247.77 33.77 246.93C33.77 246.17 33.87 245.467 34.07 244.82C34.2767 244.173 34.57 243.613 34.95 243.14C35.33 242.66 35.79 242.287 36.33 242.02C36.8767 241.747 37.4867 241.61 38.16 241.61C38.76 241.61 39.27 241.707 39.69 241.9C40.11 242.087 40.4867 242.35 40.82 242.69V237.2H42.97ZM51.0491 247.54C50.2824 247.567 49.6357 247.63 49.1091 247.73C48.5824 247.823 48.1557 247.947 47.8291 248.1C47.5024 248.247 47.2657 248.423 47.1191 248.63C46.9791 248.837 46.9091 249.063 46.9091 249.31C46.9091 249.55 46.9457 249.757 47.0191 249.93C47.0991 250.097 47.2057 250.237 47.3391 250.35C47.4791 250.457 47.6391 250.537 47.8191 250.59C48.0057 250.637 48.2091 250.66 48.4291 250.66C48.9891 250.66 49.4691 250.557 49.8691 250.35C50.2757 250.137 50.6691 249.83 51.0491 249.43V247.54ZM45.3491 243.22C46.5024 242.147 47.8757 241.61 49.4691 241.61C50.0557 241.61 50.5757 241.707 51.0291 241.9C51.4891 242.087 51.8724 242.353 52.1791 242.7C52.4924 243.047 52.7291 243.46 52.8891 243.94C53.0557 244.413 53.1391 244.94 53.1391 245.52V252H52.1791C51.9724 252 51.8157 251.97 51.7091 251.91C51.6024 251.843 51.5124 251.713 51.4391 251.52L51.2291 250.69C50.9691 250.923 50.7124 251.133 50.4591 251.32C50.2057 251.5 49.9424 251.653 49.6691 251.78C49.4024 251.907 49.1124 252 48.7991 252.06C48.4924 252.127 48.1524 252.16 47.7791 252.16C47.3657 252.16 46.9791 252.103 46.6191 251.99C46.2657 251.877 45.9591 251.707 45.6991 251.48C45.4391 251.247 45.2324 250.96 45.0791 250.62C44.9324 250.28 44.8591 249.88 44.8591 249.42C44.8591 249.027 44.9624 248.643 45.1691 248.27C45.3824 247.897 45.7291 247.563 46.2091 247.27C46.6957 246.97 47.3324 246.723 48.1191 246.53C48.9124 246.337 49.8891 246.227 51.0491 246.2V245.52C51.0491 244.787 50.8924 244.24 50.5791 243.88C50.2657 243.52 49.8057 243.34 49.1991 243.34C48.7857 243.34 48.4391 243.393 48.1591 243.5C47.8791 243.6 47.6357 243.71 47.4291 243.83C47.2224 243.95 47.0391 244.063 46.8791 244.17C46.7191 244.27 46.5491 244.32 46.3691 244.32C46.2224 244.32 46.0957 244.283 45.9891 244.21C45.8891 244.13 45.8057 244.033 45.7391 243.92L45.3491 243.22ZM58.7909 252.16C57.9443 252.16 57.2909 251.923 56.8309 251.45C56.3776 250.97 56.1509 250.297 56.1509 249.43V243.49H55.0309C54.9109 243.49 54.8076 243.453 54.7209 243.38C54.6343 243.3 54.5909 243.183 54.5909 243.03V242.16L56.2409 241.92L56.7109 238.97C56.7443 238.857 56.8009 238.767 56.8809 238.7C56.9609 238.627 57.0676 238.59 57.2009 238.59H58.3009V241.94H61.1309V243.49H58.3009V249.28C58.3009 249.647 58.3909 249.927 58.5709 250.12C58.7509 250.313 58.9909 250.41 59.2909 250.41C59.4576 250.41 59.6009 250.39 59.7209 250.35C59.8409 250.303 59.9443 250.257 60.0309 250.21C60.1176 250.157 60.1909 250.11 60.2509 250.07C60.3176 250.023 60.3809 250 60.4409 250C60.5609 250 60.6576 250.067 60.7309 250.2L61.3709 251.25C61.0376 251.543 60.6443 251.77 60.1909 251.93C59.7376 252.083 59.2709 252.16 58.7909 252.16ZM68.2756 247.54C67.509 247.567 66.8623 247.63 66.3356 247.73C65.809 247.823 65.3823 247.947 65.0556 248.1C64.729 248.247 64.4923 248.423 64.3456 248.63C64.2056 248.837 64.1356 249.063 64.1356 249.31C64.1356 249.55 64.1723 249.757 64.2456 249.93C64.3256 250.097 64.4323 250.237 64.5656 250.35C64.7056 250.457 64.8656 250.537 65.0456 250.59C65.2323 250.637 65.4356 250.66 65.6556 250.66C66.2156 250.66 66.6956 250.557 67.0956 250.35C67.5023 250.137 67.8956 249.83 68.2756 249.43V247.54ZM62.5756 243.22C63.729 242.147 65.1023 241.61 66.6956 241.61C67.2823 241.61 67.8023 241.707 68.2556 241.9C68.7156 242.087 69.099 242.353 69.4056 242.7C69.719 243.047 69.9556 243.46 70.1156 243.94C70.2823 244.413 70.3656 244.94 70.3656 245.52V252H69.4056C69.199 252 69.0423 251.97 68.9356 251.91C68.829 251.843 68.739 251.713 68.6656 251.52L68.4556 250.69C68.1956 250.923 67.939 251.133 67.6856 251.32C67.4323 251.5 67.169 251.653 66.8956 251.78C66.629 251.907 66.339 252 66.0256 252.06C65.719 252.127 65.379 252.16 65.0056 252.16C64.5923 252.16 64.2056 252.103 63.8456 251.99C63.4923 251.877 63.1856 251.707 62.9256 251.48C62.6656 251.247 62.459 250.96 62.3056 250.62C62.159 250.28 62.0856 249.88 62.0856 249.42C62.0856 249.027 62.189 248.643 62.3956 248.27C62.609 247.897 62.9556 247.563 63.4356 247.27C63.9223 246.97 64.559 246.723 65.3456 246.53C66.139 246.337 67.1156 246.227 68.2756 246.2V245.52C68.2756 244.787 68.119 244.24 67.8056 243.88C67.4923 243.52 67.0323 243.34 66.4256 243.34C66.0123 243.34 65.6656 243.393 65.3856 243.5C65.1056 243.6 64.8623 243.71 64.6556 243.83C64.449 243.95 64.2656 244.063 64.1056 244.17C63.9456 244.27 63.7756 244.32 63.5956 244.32C63.449 244.32 63.3223 244.283 63.2156 244.21C63.1156 244.13 63.0323 244.033 62.9656 243.92L62.5756 243.22ZM75.0342 249.44C75.3342 249.827 75.6609 250.1 76.0142 250.26C76.3742 250.413 76.7642 250.49 77.1842 250.49C78.0309 250.49 78.6909 250.183 79.1642 249.57C79.6376 248.957 79.8742 248.007 79.8742 246.72C79.8742 245.547 79.6676 244.69 79.2542 244.15C78.8476 243.61 78.2642 243.34 77.5042 243.34C76.9776 243.34 76.5176 243.46 76.1242 243.7C75.7376 243.933 75.3742 244.27 75.0342 244.71V249.44ZM75.0342 243.15C75.4542 242.69 75.9242 242.323 76.4442 242.05C76.9642 241.777 77.5576 241.64 78.2242 241.64C78.8176 241.64 79.3509 241.757 79.8242 241.99C80.3042 242.217 80.7109 242.547 81.0442 242.98C81.3776 243.413 81.6342 243.94 81.8142 244.56C81.9942 245.173 82.0842 245.867 82.0842 246.64C82.0842 247.467 81.9809 248.22 81.7742 248.9C81.5742 249.573 81.2842 250.153 80.9042 250.64C80.5242 251.12 80.0642 251.493 79.5242 251.76C78.9842 252.02 78.3809 252.15 77.7142 252.15C77.3876 252.15 77.0909 252.117 76.8242 252.05C76.5576 251.99 76.3109 251.9 76.0842 251.78C75.8576 251.66 75.6476 251.517 75.4542 251.35C75.2676 251.183 75.0876 250.993 74.9142 250.78L74.8242 251.57C74.7909 251.723 74.7309 251.833 74.6442 251.9C74.5576 251.967 74.4376 252 74.2842 252H72.8842V237.2H75.0342V243.15ZM89.6233 247.54C88.8566 247.567 88.2099 247.63 87.6833 247.73C87.1566 247.823 86.7299 247.947 86.4033 248.1C86.0766 248.247 85.8399 248.423 85.6933 248.63C85.5533 248.837 85.4833 249.063 85.4833 249.31C85.4833 249.55 85.5199 249.757 85.5933 249.93C85.6733 250.097 85.7799 250.237 85.9133 250.35C86.0533 250.457 86.2133 250.537 86.3933 250.59C86.5799 250.637 86.7833 250.66 87.0033 250.66C87.5633 250.66 88.0433 250.557 88.4433 250.35C88.8499 250.137 89.2433 249.83 89.6233 249.43V247.54ZM83.9233 243.22C85.0766 242.147 86.4499 241.61 88.0433 241.61C88.6299 241.61 89.1499 241.707 89.6033 241.9C90.0633 242.087 90.4466 242.353 90.7533 242.7C91.0666 243.047 91.3033 243.46 91.4633 243.94C91.6299 244.413 91.7133 244.94 91.7133 245.52V252H90.7533C90.5466 252 90.3899 251.97 90.2833 251.91C90.1766 251.843 90.0866 251.713 90.0133 251.52L89.8033 250.69C89.5433 250.923 89.2866 251.133 89.0333 251.32C88.7799 251.5 88.5166 251.653 88.2433 251.78C87.9766 251.907 87.6866 252 87.3733 252.06C87.0666 252.127 86.7266 252.16 86.3533 252.16C85.9399 252.16 85.5533 252.103 85.1933 251.99C84.8399 251.877 84.5333 251.707 84.2733 251.48C84.0133 251.247 83.8066 250.96 83.6533 250.62C83.5066 250.28 83.4333 249.88 83.4333 249.42C83.4333 249.027 83.5366 248.643 83.7433 248.27C83.9566 247.897 84.3033 247.563 84.7833 247.27C85.2699 246.97 85.9066 246.723 86.6933 246.53C87.4866 246.337 88.4633 246.227 89.6233 246.2V245.52C89.6233 244.787 89.4666 244.24 89.1533 243.88C88.8399 243.52 88.3799 243.34 87.7733 243.34C87.3599 243.34 87.0133 243.393 86.7333 243.5C86.4533 243.6 86.2099 243.71 86.0033 243.83C85.7966 243.95 85.6133 244.063 85.4533 244.17C85.2933 244.27 85.1233 244.32 84.9433 244.32C84.7966 244.32 84.6699 244.283 84.5633 244.21C84.4633 244.13 84.3799 244.033 84.3133 243.92L83.9233 243.22ZM100.322 243.65C100.269 243.743 100.209 243.81 100.142 243.85C100.075 243.89 99.9919 243.91 99.8919 243.91C99.7785 243.91 99.6552 243.877 99.5219 243.81C99.3885 243.737 99.2319 243.657 99.0519 243.57C98.8719 243.483 98.6585 243.407 98.4119 243.34C98.1719 243.267 97.8885 243.23 97.5619 243.23C97.2952 243.23 97.0519 243.263 96.8319 243.33C96.6185 243.39 96.4352 243.48 96.2819 243.6C96.1352 243.713 96.0219 243.85 95.9419 244.01C95.8619 244.163 95.8219 244.33 95.8219 244.51C95.8219 244.75 95.8952 244.95 96.0419 245.11C96.1885 245.27 96.3819 245.41 96.6219 245.53C96.8619 245.643 97.1352 245.747 97.4419 245.84C97.7485 245.933 98.0619 246.033 98.3819 246.14C98.7019 246.247 99.0152 246.37 99.3219 246.51C99.6285 246.65 99.9019 246.823 100.142 247.03C100.382 247.23 100.575 247.477 100.722 247.77C100.869 248.057 100.942 248.407 100.942 248.82C100.942 249.3 100.855 249.743 100.682 250.15C100.509 250.557 100.255 250.91 99.9219 251.21C99.5885 251.51 99.1719 251.743 98.6719 251.91C98.1785 252.077 97.6119 252.16 96.9719 252.16C96.6185 252.16 96.2752 252.127 95.9419 252.06C95.6152 252 95.3019 251.917 95.0019 251.81C94.7085 251.697 94.4319 251.563 94.1719 251.41C93.9185 251.257 93.6919 251.09 93.4919 250.91L93.9919 250.09C94.0519 249.99 94.1252 249.913 94.2119 249.86C94.3052 249.8 94.4185 249.77 94.5519 249.77C94.6919 249.77 94.8285 249.817 94.9619 249.91C95.1019 249.997 95.2619 250.093 95.4419 250.2C95.6285 250.307 95.8519 250.407 96.1119 250.5C96.3719 250.587 96.6952 250.63 97.0819 250.63C97.4019 250.63 97.6785 250.593 97.9119 250.52C98.1452 250.44 98.3385 250.333 98.4919 250.2C98.6452 250.067 98.7585 249.917 98.8319 249.75C98.9052 249.577 98.9419 249.393 98.9419 249.2C98.9419 248.94 98.8685 248.727 98.7219 248.56C98.5752 248.393 98.3785 248.25 98.1319 248.13C97.8919 248.01 97.6152 247.903 97.3019 247.81C96.9952 247.717 96.6819 247.617 96.3619 247.51C96.0419 247.403 95.7252 247.28 95.4119 247.14C95.1052 247 94.8285 246.823 94.5819 246.61C94.3419 246.39 94.1485 246.127 94.0019 245.82C93.8552 245.507 93.7819 245.127 93.7819 244.68C93.7819 244.273 93.8619 243.887 94.0219 243.52C94.1885 243.153 94.4285 242.83 94.7419 242.55C95.0619 242.27 95.4519 242.05 95.9119 241.89C96.3785 241.723 96.9152 241.64 97.5219 241.64C98.2085 241.64 98.8319 241.75 99.3919 241.97C99.9519 242.19 100.422 242.49 100.802 242.87L100.322 243.65ZM109.652 245.75C109.652 245.39 109.599 245.057 109.492 244.75C109.392 244.437 109.242 244.167 109.042 243.94C108.842 243.707 108.592 243.527 108.292 243.4C107.999 243.267 107.659 243.2 107.272 243.2C106.492 243.2 105.879 243.423 105.432 243.87C104.986 244.317 104.702 244.943 104.582 245.75H109.652ZM104.522 247.07C104.549 247.65 104.639 248.153 104.792 248.58C104.946 249 105.149 249.35 105.402 249.63C105.662 249.91 105.969 250.12 106.322 250.26C106.682 250.393 107.082 250.46 107.522 250.46C107.942 250.46 108.306 250.413 108.612 250.32C108.919 250.22 109.186 250.113 109.412 250C109.639 249.88 109.832 249.773 109.992 249.68C110.152 249.58 110.299 249.53 110.432 249.53C110.606 249.53 110.739 249.597 110.832 249.73L111.442 250.52C111.189 250.82 110.902 251.073 110.582 251.28C110.262 251.487 109.922 251.657 109.562 251.79C109.202 251.917 108.832 252.007 108.452 252.06C108.072 252.12 107.702 252.15 107.342 252.15C106.636 252.15 105.979 252.033 105.372 251.8C104.772 251.56 104.249 251.21 103.802 250.75C103.362 250.29 103.016 249.72 102.762 249.04C102.516 248.36 102.392 247.577 102.392 246.69C102.392 245.983 102.502 245.323 102.722 244.71C102.949 244.097 103.269 243.563 103.682 243.11C104.102 242.657 104.609 242.3 105.202 242.04C105.802 241.773 106.479 241.64 107.232 241.64C107.859 241.64 108.439 241.743 108.972 241.95C109.506 242.15 109.966 242.447 110.352 242.84C110.739 243.233 111.039 243.717 111.252 244.29C111.472 244.857 111.582 245.503 111.582 246.23C111.582 246.563 111.546 246.787 111.472 246.9C111.399 247.013 111.266 247.07 111.072 247.07H104.522Z" fill="#0D1657"/>
<path d="M56.73 96.916C56.73 98.0453 56.59 99.0627 56.31 99.968C56.0393 100.864 55.6287 101.629 55.078 102.264C54.5367 102.889 53.86 103.375 53.048 103.72C52.2453 104.056 51.312 104.224 50.248 104.224C49.7627 104.224 49.282 104.191 48.806 104.126C48.33 104.07 47.8353 103.977 47.322 103.846L47.49 101.886C47.518 101.699 47.588 101.55 47.7 101.438C47.8213 101.326 47.994 101.27 48.218 101.27C48.386 101.27 48.6007 101.307 48.862 101.382C49.1327 101.447 49.4827 101.48 49.912 101.48C50.4813 101.48 50.9853 101.396 51.424 101.228C51.872 101.06 52.2453 100.799 52.544 100.444C52.852 100.08 53.0807 99.618 53.23 99.058C53.3887 98.4887 53.468 97.8027 53.468 97V83.84H56.73V96.916ZM67.8663 97.756C66.793 97.7933 65.8877 97.882 65.1503 98.022C64.413 98.1527 63.8157 98.3253 63.3583 98.54C62.901 98.7453 62.5697 98.9927 62.3643 99.282C62.1683 99.5713 62.0703 99.8887 62.0703 100.234C62.0703 100.57 62.1217 100.859 62.2243 101.102C62.3363 101.335 62.4857 101.531 62.6723 101.69C62.8683 101.839 63.0923 101.951 63.3443 102.026C63.6057 102.091 63.8903 102.124 64.1983 102.124C64.9823 102.124 65.6543 101.979 66.2143 101.69C66.7837 101.391 67.3343 100.962 67.8663 100.402V97.756ZM59.8863 91.708C61.501 90.2053 63.4237 89.454 65.6543 89.454C66.4757 89.454 67.2037 89.5893 67.8383 89.86C68.4823 90.1213 69.019 90.4947 69.4483 90.98C69.887 91.4653 70.2183 92.044 70.4423 92.716C70.6757 93.3787 70.7923 94.116 70.7923 94.928V104H69.4483C69.159 104 68.9397 103.958 68.7903 103.874C68.641 103.781 68.515 103.599 68.4123 103.328L68.1183 102.166C67.7543 102.493 67.395 102.787 67.0403 103.048C66.6857 103.3 66.317 103.515 65.9343 103.692C65.561 103.869 65.155 104 64.7163 104.084C64.287 104.177 63.811 104.224 63.2883 104.224C62.7097 104.224 62.1683 104.145 61.6643 103.986C61.1697 103.827 60.7403 103.589 60.3763 103.272C60.0123 102.945 59.723 102.544 59.5083 102.068C59.303 101.592 59.2003 101.032 59.2003 100.388C59.2003 99.8373 59.345 99.3007 59.6343 98.778C59.933 98.2553 60.4183 97.7887 61.0903 97.378C61.7717 96.958 62.663 96.6127 63.7643 96.342C64.875 96.0713 66.2423 95.9173 67.8663 95.88V94.928C67.8663 93.9013 67.647 93.136 67.2083 92.632C66.7697 92.128 66.1257 91.876 65.2763 91.876C64.6977 91.876 64.2123 91.9507 63.8203 92.1C63.4283 92.24 63.0877 92.394 62.7983 92.562C62.509 92.73 62.2523 92.8887 62.0283 93.038C61.8043 93.178 61.5663 93.248 61.3143 93.248C61.109 93.248 60.9317 93.1967 60.7823 93.094C60.6423 92.982 60.5257 92.8467 60.4323 92.688L59.8863 91.708ZM86.5623 89.72L80.8223 104H78.1063L72.3663 89.72H74.8443C75.0776 89.72 75.2689 89.7807 75.4183 89.902C75.5769 90.014 75.6796 90.1493 75.7263 90.308L78.8903 98.624C79.0209 99.016 79.1376 99.4033 79.2403 99.786C79.3429 100.169 79.4316 100.556 79.5063 100.948C79.5809 100.556 79.6696 100.173 79.7723 99.8C79.8843 99.4173 80.0056 99.0253 80.1363 98.624L83.3563 90.308C83.4123 90.14 83.5149 90 83.6643 89.888C83.8136 89.776 83.9956 89.72 84.2103 89.72H86.5623ZM95.921 97.756C94.8477 97.7933 93.9424 97.882 93.205 98.022C92.4677 98.1527 91.8704 98.3253 91.413 98.54C90.9557 98.7453 90.6244 98.9927 90.419 99.282C90.223 99.5713 90.125 99.8887 90.125 100.234C90.125 100.57 90.1764 100.859 90.279 101.102C90.391 101.335 90.5404 101.531 90.727 101.69C90.923 101.839 91.147 101.951 91.399 102.026C91.6604 102.091 91.945 102.124 92.253 102.124C93.037 102.124 93.709 101.979 94.269 101.69C94.8384 101.391 95.389 100.962 95.921 100.402V97.756ZM87.941 91.708C89.5557 90.2053 91.4784 89.454 93.709 89.454C94.5304 89.454 95.2584 89.5893 95.893 89.86C96.537 90.1213 97.0737 90.4947 97.503 90.98C97.9417 91.4653 98.273 92.044 98.497 92.716C98.7304 93.3787 98.847 94.116 98.847 94.928V104H97.503C97.2137 104 96.9944 103.958 96.845 103.874C96.6957 103.781 96.5697 103.599 96.467 103.328L96.173 102.166C95.809 102.493 95.4497 102.787 95.095 103.048C94.7404 103.3 94.3717 103.515 93.989 103.692C93.6157 103.869 93.2097 104 92.771 104.084C92.3417 104.177 91.8657 104.224 91.343 104.224C90.7644 104.224 90.223 104.145 89.719 103.986C89.2244 103.827 88.795 103.589 88.431 103.272C88.067 102.945 87.7777 102.544 87.563 102.068C87.3577 101.592 87.255 101.032 87.255 100.388C87.255 99.8373 87.3997 99.3007 87.689 98.778C87.9877 98.2553 88.473 97.7887 89.145 97.378C89.8264 96.958 90.7177 96.6127 91.819 96.342C92.9297 96.0713 94.297 95.9173 95.921 95.88V94.928C95.921 93.9013 95.7017 93.136 95.263 92.632C94.8244 92.128 94.1804 91.876 93.331 91.876C92.7524 91.876 92.267 91.9507 91.875 92.1C91.483 92.24 91.1424 92.394 90.853 92.562C90.5637 92.73 90.307 92.8887 90.083 93.038C89.859 93.178 89.621 93.248 89.369 93.248C89.1637 93.248 88.9864 93.1967 88.837 93.094C88.697 92.982 88.5804 92.8467 88.487 92.688L87.941 91.708ZM113.229 87.284C113.126 87.452 113.019 87.578 112.907 87.662C112.795 87.7367 112.655 87.774 112.487 87.774C112.31 87.774 112.109 87.6993 111.885 87.55C111.67 87.4007 111.4 87.2373 111.073 87.06C110.756 86.8733 110.378 86.7053 109.939 86.556C109.5 86.3973 108.978 86.318 108.371 86.318C107.811 86.318 107.316 86.388 106.887 86.528C106.467 86.668 106.112 86.864 105.823 87.116C105.534 87.368 105.314 87.6667 105.165 88.012C105.025 88.348 104.955 88.7167 104.955 89.118C104.955 89.6313 105.09 90.0607 105.361 90.406C105.632 90.742 105.986 91.0313 106.425 91.274C106.873 91.5167 107.382 91.7313 107.951 91.918C108.52 92.0953 109.099 92.2867 109.687 92.492C110.284 92.6973 110.868 92.9307 111.437 93.192C112.006 93.4533 112.51 93.7847 112.949 94.186C113.397 94.5873 113.756 95.0773 114.027 95.656C114.298 96.2347 114.433 96.9393 114.433 97.77C114.433 98.666 114.279 99.506 113.971 100.29C113.663 101.074 113.215 101.76 112.627 102.348C112.048 102.927 111.33 103.384 110.471 103.72C109.622 104.056 108.651 104.224 107.559 104.224C106.915 104.224 106.285 104.159 105.669 104.028C105.062 103.907 104.479 103.734 103.919 103.51C103.368 103.277 102.85 102.997 102.365 102.67C101.88 102.343 101.446 101.979 101.063 101.578L102.015 100.01C102.099 99.8793 102.206 99.7767 102.337 99.702C102.468 99.6273 102.612 99.59 102.771 99.59C102.986 99.59 103.224 99.6927 103.485 99.898C103.746 100.094 104.059 100.313 104.423 100.556C104.796 100.789 105.244 101.009 105.767 101.214C106.29 101.41 106.915 101.508 107.643 101.508C108.828 101.508 109.743 101.219 110.387 100.64C111.04 100.061 111.367 99.2633 111.367 98.246C111.367 97.6767 111.232 97.2147 110.961 96.86C110.69 96.496 110.331 96.1927 109.883 95.95C109.444 95.7073 108.94 95.502 108.371 95.334C107.802 95.166 107.223 94.9887 106.635 94.802C106.047 94.606 105.468 94.382 104.899 94.13C104.33 93.8687 103.821 93.5327 103.373 93.122C102.934 92.702 102.58 92.1887 102.309 91.582C102.038 90.966 101.903 90.2007 101.903 89.286C101.903 88.558 102.043 87.8533 102.323 87.172C102.612 86.4907 103.028 85.8887 103.569 85.366C104.12 84.834 104.796 84.4093 105.599 84.092C106.402 83.7747 107.316 83.616 108.343 83.616C109.5 83.616 110.56 83.798 111.521 84.162C112.492 84.526 113.327 85.044 114.027 85.716L113.229 87.284ZM127.451 92.52C127.358 92.6413 127.269 92.7347 127.185 92.8C127.101 92.8653 126.98 92.898 126.821 92.898C126.663 92.898 126.495 92.842 126.317 92.73C126.149 92.618 125.944 92.4967 125.701 92.366C125.468 92.226 125.183 92.1 124.847 91.988C124.511 91.876 124.091 91.82 123.587 91.82C122.934 91.82 122.36 91.9367 121.865 92.17C121.38 92.4033 120.969 92.7393 120.633 93.178C120.307 93.6073 120.059 94.1347 119.891 94.76C119.733 95.376 119.653 96.0713 119.653 96.846C119.653 97.6487 119.742 98.3627 119.919 98.988C120.097 99.6133 120.349 100.141 120.675 100.57C121.011 100.999 121.413 101.326 121.879 101.55C122.355 101.774 122.887 101.886 123.475 101.886C124.054 101.886 124.525 101.816 124.889 101.676C125.253 101.536 125.557 101.382 125.799 101.214C126.042 101.046 126.247 100.892 126.415 100.752C126.593 100.612 126.779 100.542 126.975 100.542C127.218 100.542 127.405 100.635 127.535 100.822L128.389 101.928C128.044 102.348 127.661 102.703 127.241 102.992C126.821 103.281 126.378 103.519 125.911 103.706C125.445 103.883 124.959 104.009 124.455 104.084C123.951 104.168 123.443 104.21 122.929 104.21C122.043 104.21 121.212 104.047 120.437 103.72C119.672 103.384 119 102.903 118.421 102.278C117.852 101.643 117.399 100.873 117.063 99.968C116.737 99.0533 116.573 98.0127 116.573 96.846C116.573 95.7913 116.723 94.816 117.021 93.92C117.32 93.0147 117.754 92.2353 118.323 91.582C118.902 90.9287 119.616 90.42 120.465 90.056C121.315 89.6827 122.295 89.496 123.405 89.496C124.441 89.496 125.351 89.664 126.135 90C126.929 90.336 127.633 90.812 128.249 91.428L127.451 92.52ZM133.653 92.366C134.101 91.4607 134.642 90.7513 135.277 90.238C135.911 89.7153 136.672 89.454 137.559 89.454C137.867 89.454 138.156 89.4913 138.427 89.566C138.697 89.6313 138.94 89.734 139.155 89.874L138.945 92.142C138.907 92.3007 138.847 92.4127 138.763 92.478C138.688 92.534 138.585 92.562 138.455 92.562C138.315 92.562 138.114 92.5387 137.853 92.492C137.591 92.436 137.316 92.408 137.027 92.408C136.607 92.408 136.233 92.4687 135.907 92.59C135.589 92.7113 135.3 92.8887 135.039 93.122C134.787 93.3553 134.563 93.64 134.367 93.976C134.171 94.312 133.989 94.6947 133.821 95.124V104H130.811V89.72H132.561C132.878 89.72 133.097 89.7807 133.219 89.902C133.34 90.014 133.424 90.2147 133.471 90.504L133.653 92.366ZM144.283 89.72V104H141.273V89.72H144.283ZM144.787 85.408C144.787 85.6787 144.731 85.9353 144.619 86.178C144.516 86.4207 144.371 86.6353 144.185 86.822C143.998 86.9993 143.779 87.144 143.527 87.256C143.284 87.3587 143.023 87.41 142.743 87.41C142.472 87.41 142.215 87.3587 141.973 87.256C141.739 87.144 141.534 86.9993 141.357 86.822C141.179 86.6353 141.035 86.4207 140.923 86.178C140.82 85.9353 140.769 85.6787 140.769 85.408C140.769 85.128 140.82 84.8667 140.923 84.624C141.035 84.3813 141.179 84.1713 141.357 83.994C141.534 83.8073 141.739 83.6627 141.973 83.56C142.215 83.448 142.472 83.392 142.743 83.392C143.023 83.392 143.284 83.448 143.527 83.56C143.779 83.6627 143.998 83.8073 144.185 83.994C144.371 84.1713 144.516 84.3813 144.619 84.624C144.731 84.8667 144.787 85.128 144.787 85.408ZM151.074 100.416C151.494 100.957 151.952 101.34 152.446 101.564C152.95 101.779 153.506 101.886 154.112 101.886C155.288 101.886 156.203 101.457 156.856 100.598C157.519 99.7393 157.85 98.4607 157.85 96.762C157.85 95.8847 157.776 95.138 157.626 94.522C157.477 93.8967 157.262 93.388 156.982 92.996C156.702 92.604 156.362 92.3193 155.96 92.142C155.559 91.9647 155.106 91.876 154.602 91.876C153.837 91.876 153.174 92.044 152.614 92.38C152.064 92.7067 151.55 93.178 151.074 93.794V100.416ZM150.92 91.792C151.518 91.092 152.194 90.5273 152.95 90.098C153.716 89.6687 154.602 89.454 155.61 89.454C156.413 89.454 157.141 89.6173 157.794 89.944C158.448 90.2613 159.008 90.728 159.474 91.344C159.941 91.96 160.3 92.7253 160.552 93.64C160.814 94.5453 160.944 95.586 160.944 96.762C160.944 97.8167 160.8 98.8013 160.51 99.716C160.23 100.621 159.824 101.41 159.292 102.082C158.76 102.745 158.116 103.267 157.36 103.65C156.604 104.023 155.75 104.21 154.798 104.21C153.958 104.21 153.244 104.075 152.656 103.804C152.078 103.533 151.55 103.16 151.074 102.684V108.746H148.064V89.72H149.884C150.295 89.72 150.556 89.9113 150.668 90.294L150.92 91.792ZM168.256 104.224C167.07 104.224 166.156 103.893 165.512 103.23C164.877 102.558 164.56 101.615 164.56 100.402V92.086H162.992C162.824 92.086 162.679 92.0347 162.558 91.932C162.436 91.82 162.376 91.6567 162.376 91.442V90.224L164.686 89.888L165.344 85.758C165.39 85.5993 165.47 85.4733 165.582 85.38C165.694 85.2773 165.843 85.226 166.03 85.226H167.57V89.916H171.532V92.086H167.57V100.192C167.57 100.705 167.696 101.097 167.948 101.368C168.2 101.639 168.536 101.774 168.956 101.774C169.189 101.774 169.39 101.746 169.558 101.69C169.726 101.625 169.87 101.559 169.992 101.494C170.113 101.419 170.216 101.354 170.3 101.298C170.393 101.233 170.482 101.2 170.566 101.2C170.734 101.2 170.869 101.293 170.972 101.48L171.868 102.95C171.401 103.361 170.85 103.678 170.216 103.902C169.581 104.117 168.928 104.224 168.256 104.224Z" fill="#0D1657"/>
<path d="M220.394 113.506C220.571 113.506 220.725 113.576 220.856 113.716L222.158 115.13C221.337 116.119 220.329 116.885 219.134 117.426C217.939 117.958 216.511 118.224 214.85 118.224C213.375 118.224 212.041 117.972 210.846 117.468C209.661 116.955 208.648 116.245 207.808 115.34C206.968 114.425 206.319 113.338 205.862 112.078C205.414 110.818 205.19 109.432 205.19 107.92C205.19 106.408 205.428 105.022 205.904 103.762C206.389 102.493 207.066 101.405 207.934 100.5C208.811 99.5853 209.857 98.876 211.07 98.372C212.293 97.868 213.637 97.616 215.102 97.616C216.558 97.616 217.841 97.854 218.952 98.33C220.072 98.7967 221.043 99.422 221.864 100.206L220.786 101.732C220.711 101.835 220.623 101.923 220.52 101.998C220.417 102.073 220.277 102.11 220.1 102.11C219.913 102.11 219.699 102.026 219.456 101.858C219.223 101.681 218.919 101.489 218.546 101.284C218.182 101.069 217.72 100.878 217.16 100.71C216.609 100.533 215.919 100.444 215.088 100.444C214.127 100.444 213.245 100.612 212.442 100.948C211.639 101.284 210.949 101.774 210.37 102.418C209.791 103.062 209.339 103.846 209.012 104.77C208.695 105.694 208.536 106.744 208.536 107.92C208.536 109.105 208.704 110.165 209.04 111.098C209.376 112.022 209.838 112.806 210.426 113.45C211.014 114.085 211.705 114.57 212.498 114.906C213.291 115.242 214.145 115.41 215.06 115.41C215.62 115.41 216.119 115.382 216.558 115.326C217.006 115.261 217.417 115.163 217.79 115.032C218.163 114.892 218.513 114.719 218.84 114.514C219.176 114.309 219.507 114.057 219.834 113.758C220.021 113.59 220.207 113.506 220.394 113.506ZM235.53 101.284C235.427 101.452 235.32 101.578 235.208 101.662C235.096 101.737 234.956 101.774 234.788 101.774C234.61 101.774 234.41 101.699 234.186 101.55C233.971 101.401 233.7 101.237 233.374 101.06C233.056 100.873 232.678 100.705 232.24 100.556C231.801 100.397 231.278 100.318 230.672 100.318C230.112 100.318 229.617 100.388 229.188 100.528C228.768 100.668 228.413 100.864 228.124 101.116C227.834 101.368 227.615 101.667 227.466 102.012C227.326 102.348 227.256 102.717 227.256 103.118C227.256 103.631 227.391 104.061 227.662 104.406C227.932 104.742 228.287 105.031 228.726 105.274C229.174 105.517 229.682 105.731 230.252 105.918C230.821 106.095 231.4 106.287 231.988 106.492C232.585 106.697 233.168 106.931 233.738 107.192C234.307 107.453 234.811 107.785 235.25 108.186C235.698 108.587 236.057 109.077 236.328 109.656C236.598 110.235 236.734 110.939 236.734 111.77C236.734 112.666 236.58 113.506 236.272 114.29C235.964 115.074 235.516 115.76 234.928 116.348C234.349 116.927 233.63 117.384 232.772 117.72C231.922 118.056 230.952 118.224 229.86 118.224C229.216 118.224 228.586 118.159 227.97 118.028C227.363 117.907 226.78 117.734 226.22 117.51C225.669 117.277 225.151 116.997 224.666 116.67C224.18 116.343 223.746 115.979 223.364 115.578L224.316 114.01C224.4 113.879 224.507 113.777 224.638 113.702C224.768 113.627 224.913 113.59 225.072 113.59C225.286 113.59 225.524 113.693 225.786 113.898C226.047 114.094 226.36 114.313 226.724 114.556C227.097 114.789 227.545 115.009 228.068 115.214C228.59 115.41 229.216 115.508 229.944 115.508C231.129 115.508 232.044 115.219 232.688 114.64C233.341 114.061 233.668 113.263 233.668 112.246C233.668 111.677 233.532 111.215 233.262 110.86C232.991 110.496 232.632 110.193 232.184 109.95C231.745 109.707 231.241 109.502 230.672 109.334C230.102 109.166 229.524 108.989 228.936 108.802C228.348 108.606 227.769 108.382 227.2 108.13C226.63 107.869 226.122 107.533 225.674 107.122C225.235 106.702 224.88 106.189 224.61 105.582C224.339 104.966 224.204 104.201 224.204 103.286C224.204 102.558 224.344 101.853 224.624 101.172C224.913 100.491 225.328 99.8887 225.87 99.366C226.42 98.834 227.097 98.4093 227.9 98.092C228.702 97.7747 229.617 97.616 230.644 97.616C231.801 97.616 232.86 97.798 233.822 98.162C234.792 98.526 235.628 99.044 236.328 99.716L235.53 101.284ZM250.815 101.284C250.712 101.452 250.605 101.578 250.493 101.662C250.381 101.737 250.241 101.774 250.073 101.774C249.896 101.774 249.695 101.699 249.471 101.55C249.256 101.401 248.986 101.237 248.659 101.06C248.342 100.873 247.964 100.705 247.525 100.556C247.086 100.397 246.564 100.318 245.957 100.318C245.397 100.318 244.902 100.388 244.473 100.528C244.053 100.668 243.698 100.864 243.409 101.116C243.12 101.368 242.9 101.667 242.751 102.012C242.611 102.348 242.541 102.717 242.541 103.118C242.541 103.631 242.676 104.061 242.947 104.406C243.218 104.742 243.572 105.031 244.011 105.274C244.459 105.517 244.968 105.731 245.537 105.918C246.106 106.095 246.685 106.287 247.273 106.492C247.87 106.697 248.454 106.931 249.023 107.192C249.592 107.453 250.096 107.785 250.535 108.186C250.983 108.587 251.342 109.077 251.613 109.656C251.884 110.235 252.019 110.939 252.019 111.77C252.019 112.666 251.865 113.506 251.557 114.29C251.249 115.074 250.801 115.76 250.213 116.348C249.634 116.927 248.916 117.384 248.057 117.72C247.208 118.056 246.237 118.224 245.145 118.224C244.501 118.224 243.871 118.159 243.255 118.028C242.648 117.907 242.065 117.734 241.505 117.51C240.954 117.277 240.436 116.997 239.951 116.67C239.466 116.343 239.032 115.979 238.649 115.578L239.601 114.01C239.685 113.879 239.792 113.777 239.923 113.702C240.054 113.627 240.198 113.59 240.357 113.59C240.572 113.59 240.81 113.693 241.071 113.898C241.332 114.094 241.645 114.313 242.009 114.556C242.382 114.789 242.83 115.009 243.353 115.214C243.876 115.41 244.501 115.508 245.229 115.508C246.414 115.508 247.329 115.219 247.973 114.64C248.626 114.061 248.953 113.263 248.953 112.246C248.953 111.677 248.818 111.215 248.547 110.86C248.276 110.496 247.917 110.193 247.469 109.95C247.03 109.707 246.526 109.502 245.957 109.334C245.388 109.166 244.809 108.989 244.221 108.802C243.633 108.606 243.054 108.382 242.485 108.13C241.916 107.869 241.407 107.533 240.959 107.122C240.52 106.702 240.166 106.189 239.895 105.582C239.624 104.966 239.489 104.201 239.489 103.286C239.489 102.558 239.629 101.853 239.909 101.172C240.198 100.491 240.614 99.8887 241.155 99.366C241.706 98.834 242.382 98.4093 243.185 98.092C243.988 97.7747 244.902 97.616 245.929 97.616C247.086 97.616 248.146 97.798 249.107 98.162C250.078 98.526 250.913 99.044 251.613 99.716L250.815 101.284Z" fill="#84879F"/>
</svg>
